<svg width="24" height="24" viewBox="0 0 24 24" fill="none" xmlns="http://www.w3.org/2000/svg">
<path d="M5.76841 5.45068C4.47804 6.47344 3.46955 7.80814 2.83813 9.3288C2.20152 10.7759 1.92072 12.3544 2.01924 13.9323L4.77535 16.029L5.76841 5.45068Z" fill="#00B4AF"/>
<path d="M2.90051 17.1052C3.49461 18.4679 4.39685 19.6741 5.53623 20.6289L4.77112 15.7198L2.90051 17.1052Z" fill="#009FB7"/>
<path d="M2.0199 13.7802C2.09475 14.8342 2.33436 15.8699 2.73001 16.8497C2.78684 16.9903 2.84306 17.1272 2.9054 17.2629L4.77601 15.8769L2.0199 13.7802Z" fill="#04B5AD"/>
<path d="M12.5969 19.2918L10.26 22.8399C11.4665 23.0653 12.7055 23.0526 13.9071 22.8026L13.2606 19.197C13.0412 19.2405 12.8197 19.2722 12.5969 19.2918V19.2918Z" fill="#117BBF"/>
<path d="M13.3841 2.09574L12.3629 6.48901L13.2062 6.15168L15.1661 1.38135L13.3841 2.09574Z" fill="#0688BF"/>
<path d="M5.92305 15.0555C5.51923 13.6117 5.63686 12.0718 6.25529 10.7061C6.87373 9.34034 7.95345 8.23608 9.30494 7.58712L6.95767 4.67273C6.54243 4.91017 6.14516 5.17776 5.76906 5.4733L4.776 16.0516L5.92305 15.0555Z" fill="#009CB7"/>
<path d="M10.2069 3.36927L11.5837 6.80126L12.3629 6.48899L13.3841 2.0957L10.2069 3.36927Z" fill="#0095BA"/>
<path d="M9.64958 7.61039C9.82619 7.53767 10.0083 7.47228 10.1898 7.41362L10.6506 7.26634L9.27925 3.84839L8.87469 3.98834C8.68892 4.05189 8.50354 4.12013 8.31858 4.19305C7.85112 4.38063 7.3972 4.60035 6.96008 4.85062L9.30736 7.76499C9.41797 7.7106 9.53225 7.65867 9.64958 7.61039Z" fill="#0095BA"/>
<path d="M16.1181 1L16.0796 1.01468L17.8188 4.30061L19.4493 3.64733L16.6797 1.13627L16.1181 1Z" fill="#2471B8"/>
<path d="M6.63672 16.4953C6.43835 16.1737 6.26823 15.8355 6.12827 15.4845C6.04898 15.2882 5.97863 15.0883 5.91744 14.8856L4.77039 15.8817L6.63672 16.4953Z" fill="#008BBC"/>
<path d="M11.3631 11.5752C11.1831 11.647 11.019 11.7535 10.8802 11.8888C10.7415 12.0241 10.6308 12.1855 10.5545 12.3636C10.4783 12.5418 10.438 12.7333 10.4359 12.9271C10.4338 13.1208 10.47 13.3131 10.5424 13.4929L10.8211 14.1859C10.9455 14.4971 11.1725 14.7565 11.4644 14.9212C11.7563 15.0859 12.0957 15.146 12.4265 15.0916L11.7053 11.4365L11.3631 11.5752Z" fill="#008BBC"/>
<path d="M9.54817 18.7729C8.34477 18.287 7.32593 17.4329 6.63745 16.3328L4.77173 15.7217L5.53684 20.6307C6.30839 21.2667 7.1685 21.787 8.09006 22.175C8.62565 22.405 9.17937 22.5902 9.74556 22.7287C9.9185 22.7708 10.0921 22.8057 10.265 22.8417L12.5976 19.2973C11.5535 19.3826 10.5047 19.2027 9.54878 18.7742L9.54817 18.7729Z" fill="#028CBC"/>
<path d="M15.1661 1.38132L13.2063 6.15165L17.819 4.3006L16.0797 1.01465L15.1661 1.38132Z" fill="#047CC0"/>
<path d="M14.5941 18.7766C14.5214 18.8072 14.448 18.8377 14.3753 18.8658C14.3252 18.8848 14.2757 18.9019 14.225 18.9202L15.7851 19.5564L15.5499 18.9709L14.5941 18.7766Z" fill="#3162AD"/>
<path d="M13.2649 19.1921L13.9114 22.7977C14.5379 22.6678 15.1515 22.4821 15.7448 22.2428C15.9361 22.1658 16.1231 22.0845 16.3052 21.9983L16.6926 21.8181L15.7869 19.5539L14.2243 18.9177C13.9123 19.032 13.5922 19.1229 13.2667 19.1897L13.2649 19.1921Z" fill="#2C69B2"/>
<path d="M16.8429 10.9849C16.6961 10.6227 16.4117 10.3335 16.0521 10.1805C15.6924 10.0274 15.2868 10.0231 14.924 10.1685L11.7053 11.4604L12.4264 15.1154C12.5333 15.0981 12.6381 15.0692 12.7387 15.0293L16.222 13.6335L17.2102 12.0055C17.1933 11.895 17.164 11.7867 17.1228 11.6828L16.8429 10.9849Z" fill="#1479BE"/>
<path d="M16.3003 13.5938C16.6096 13.4696 16.8676 13.2442 17.0321 12.9543C17.1966 12.6645 17.2579 12.3274 17.2059 11.9982L16.2178 13.6262L16.3003 13.5938Z" fill="#2E66B0"/>
<path d="M15.3317 18.5175L14.9039 18.7326C14.804 18.7802 14.7032 18.8258 14.6014 18.8694L15.5572 19.0687L15.3317 18.5175Z" fill="#2E66B0"/>
<path d="M19.4494 3.64678L22.3039 2.50218L16.6816 1.13574L19.4494 3.64678Z" fill="#2C69B2"/>
</svg>
