<svg width="96" height="96" viewBox="0 0 96 96" fill="none" xmlns="http://www.w3.org/2000/svg">
<path d="M48 95C57.2957 95 66.3827 92.2435 74.1118 87.0791C81.8409 81.9147 87.865 74.5743 91.4223 65.9861C94.9796 57.398 95.9104 47.9479 94.0969 38.8308C92.2834 29.7137 87.8071 21.3391 81.234 14.766C74.6609 8.19293 66.2863 3.71662 57.1692 1.90311C48.0521 0.0896077 38.602 1.02036 30.0139 4.57768C21.4257 8.135 14.0854 14.1591 8.92093 21.8882C3.7565 29.6173 1 38.7043 1 48C1 60.4652 5.95177 72.4198 14.766 81.234C23.5802 90.0482 35.5348 95 48 95Z" fill="#553580"/>
<mask id="path-2-inside-1" fill="white">
<path d="M78.6341 62.5589L50.9046 13.4244C50.6693 12.9937 50.3204 12.6339 49.8949 12.3832C49.4695 12.1324 48.9833 12 48.4878 12C47.9924 12 47.5062 12.1324 47.0807 12.3832C46.6553 12.6339 46.3064 12.9937 46.0711 13.4244L18.3522 62.5589C17.6314 63.826 18.0448 65.4701 19.338 66.2241L47.0992 82.6232C47.5386 82.8701 48.0354 83 48.5408 83C49.0463 83 49.5431 82.8701 49.9824 82.6232L77.7013 66.2555C78.9309 65.4701 79.3867 63.826 78.6341 62.5589V62.5589ZM57.678 42.7564L56.9996 42.1909L56.9572 42.149C56.7413 41.9748 56.5148 41.8139 56.2788 41.6673L56.2364 41.6254C56.0138 41.4788 55.7806 41.3217 55.5156 41.1751C55.4732 41.1751 55.4732 41.1332 55.4414 41.1332C55.2188 40.9866 54.9538 40.8714 54.7206 40.7562C54.6782 40.7562 54.6782 40.7144 54.6464 40.7144C54.4238 40.5992 54.1588 40.4944 53.8938 40.3793C53.8514 40.3793 53.8514 40.3374 53.8196 40.3374C53.597 40.2641 53.3638 40.1489 53.1412 40.0756C52.5284 39.8487 51.8972 39.6736 51.2544 39.552C50.7668 40.484 50.0778 41.3113 49.3252 42.0129C50.5018 42.0862 51.636 42.3899 52.6536 42.7983C53.2555 43.0542 53.8367 43.3553 54.392 43.6989C54.4066 43.7004 54.4208 43.7049 54.4336 43.7121C54.4464 43.7193 54.4575 43.7291 54.4662 43.7408C54.6146 43.8141 54.7312 43.9292 54.8796 44.0444C54.9506 44.0832 55.0149 44.1327 55.0704 44.1911C55.2077 44.2793 55.3355 44.381 55.452 44.4947C55.5262 44.568 55.6004 44.6099 55.6746 44.6832C55.7912 44.7984 55.8972 44.8717 56.0138 44.9869L56.2364 45.2068L56.5438 45.5105L56.7664 45.7304C56.8467 45.8382 56.9353 45.9397 57.0314 46.0341C57.1056 46.1179 57.1798 46.2226 57.254 46.2959L57.4766 46.631C57.5508 46.7462 57.625 46.8195 57.6674 46.9347L57.89 47.2698C57.9642 47.385 58.0066 47.4897 58.0808 47.5735C58.155 47.6887 58.1974 47.7934 58.2716 47.9086C58.3458 48.0238 58.3882 48.1285 58.4624 48.2437C58.5048 48.3589 58.579 48.4636 58.6108 48.5788C58.685 48.7254 58.7274 48.8825 58.8016 48.9872C59.1199 49.7524 59.3372 50.5549 59.4482 51.3748L59.7874 52.6838C59.9358 53.2493 61.3032 58.0245 64.4726 59.6372C68.1083 61.5012 72.9101 63.826 74.7969 64.7161L49.887 79.4397V69.3552C49.887 67.753 53.0988 65.8785 54.5722 65.2502L54.6464 65.2083C54.9538 65.0617 55.2506 64.9046 55.558 64.7266L55.6746 64.6533C56.3199 64.2755 56.9269 63.8371 57.4872 63.3443C57.5296 63.3024 57.6038 63.271 57.6356 63.1977C57.7098 63.1558 57.7522 63.0825 57.8264 63.0511C58.0172 62.9045 58.1656 62.716 58.3564 62.5694L58.4306 62.4961C58.6267 62.3148 58.8042 62.1149 58.9606 61.8992C59.003 61.8259 59.0772 61.784 59.109 61.7107C59.2574 61.5641 59.374 61.3756 59.5224 61.1871C59.5648 61.1452 59.5966 61.0719 59.639 61.0405L60.0948 60.3702C60.0948 60.3284 60.1372 60.3284 60.1372 60.2969C60.328 59.9933 60.5188 59.6582 60.7096 59.3649C59.957 58.4643 59.3846 57.5009 58.9288 56.6003C58.7357 57.1539 58.4946 57.69 58.208 58.2025C58.0914 58.4225 57.943 58.6528 57.8264 58.8728C57.784 58.9146 57.784 58.9461 57.7522 58.9461C57.6352 59.1276 57.5078 59.3024 57.3706 59.4697C57.3282 59.5115 57.2964 59.5849 57.254 59.6163C57.1364 59.7928 56.9976 59.9545 56.8406 60.098C56.7982 60.1399 56.7982 60.1713 56.7664 60.1713C55.8548 61.1766 54.763 62.0353 53.5122 62.6322L53.2896 62.7474C52.643 63.0092 47.0886 65.512 47.0886 69.2819V79.3664L22.1258 64.6847C23.7476 63.7108 28.4433 60.9462 32.3017 59.7524C33.8175 59.2707 37.0293 61.2813 38.8419 62.7369L38.9585 62.8521C39.1921 63.0841 39.4437 63.2977 39.7111 63.4909L39.7853 63.5642C40.3577 64.0145 40.9619 64.4648 41.6403 64.7999L42.0961 65.0198C42.1107 65.0213 42.1249 65.0258 42.1376 65.033C42.1504 65.0402 42.1615 65.05 42.1703 65.0617C42.5837 65.2816 42.9971 65.4701 43.4529 65.6586C43.5146 65.6875 43.5784 65.712 43.6437 65.7319C43.6861 65.7319 43.7179 65.7738 43.7921 65.7738C44.4387 65.9937 45.0747 66.1822 45.7213 66.3393C46.2089 65.4073 46.9296 64.58 47.6928 63.8784C46.6299 63.807 45.5833 63.5812 44.5871 63.2082C44.5447 63.1663 44.4705 63.1663 44.4387 63.1348C44.3201 63.0993 44.2063 63.0501 44.0995 62.9882C44.0571 62.9463 43.9829 62.9464 43.9511 62.9149C43.8345 62.873 43.7285 62.7997 43.6437 62.7683C42.8911 62.3913 42.2021 61.9829 41.5661 61.4593L40.5803 60.5587C39.6692 59.7677 38.6823 59.0662 37.6335 58.4643C35.1743 57.082 33.0967 56.6317 31.5067 57.1239C28.2207 58.1711 24.4684 60.1503 22.2 61.4593L47.1204 17.2257V36.6198C47.1204 37.29 46.1029 39.0807 42.6579 40.6201L42.4353 40.7353C42.0961 40.8819 41.7887 41.0704 41.4495 41.2589L41.3753 41.3008C40.7232 41.6884 40.1029 42.1261 39.5203 42.6098C39.1532 42.9048 38.8128 43.2306 38.5027 43.5837L38.4603 43.6256C38.1252 43.9469 37.8201 44.2974 37.5487 44.6728L37.5063 44.7147C37.3579 44.9031 37.2413 45.0916 37.0929 45.2801C37.0929 45.322 37.0505 45.322 37.0505 45.3534C36.9339 45.5419 36.8279 45.6885 36.7113 45.877C36.7113 45.9189 36.6689 45.9189 36.6689 45.9503L36.3297 46.5158C36.2873 46.5577 36.2873 46.5891 36.2555 46.6624C36.1389 46.8509 36.0647 47.0394 35.9905 47.186C35.989 47.2005 35.9844 47.2145 35.9771 47.2271C35.9698 47.2397 35.9599 47.2507 35.9481 47.2593C35.8739 47.4478 35.7997 47.5944 35.7255 47.7829C35.6962 47.8439 35.6714 47.9069 35.6513 47.9714L35.4287 48.5369C35.3994 48.5979 35.3746 48.6609 35.3545 48.7254C35.3193 48.8662 35.2695 49.003 35.2061 49.1338C35.1637 49.2071 35.1637 49.2804 35.1319 49.3537C35.0895 49.5422 35.0153 49.7307 34.9835 49.8773C34.9411 49.9506 34.9411 50.0658 34.9093 50.1391C34.8669 50.2543 34.8669 50.4009 34.8351 50.5161C34.7927 50.6313 34.7927 50.736 34.7609 50.8512C34.7185 50.9978 34.7185 51.1549 34.6867 51.3015C34.6867 51.4167 34.6443 51.49 34.6443 51.6052C34.6443 51.7518 34.6019 51.867 34.6019 52.0136C34.6088 52.1511 34.5945 52.2888 34.5595 52.422V52.9875C34.555 53.664 34.6046 54.3398 34.7079 55.0086C35.6937 55.2285 36.7113 55.6474 37.8137 56.171C37.5063 55.1971 37.3579 54.1918 37.3261 53.1446V52.9561C37.3191 52.7075 37.3333 52.4588 37.3685 52.2126V52.0241C37.3685 51.8042 37.4109 51.6157 37.4427 51.3853V51.312C37.4851 51.0921 37.5169 50.8617 37.5593 50.5999C37.5593 50.5266 37.6017 50.4847 37.6017 50.4114C37.6441 50.2229 37.7183 50.0344 37.7501 49.8459C37.7501 49.804 37.7925 49.7726 37.7925 49.7307L38.0151 49.0605C38.0575 49.0186 38.0575 48.9453 38.0893 48.9139C38.1635 48.7254 38.2377 48.5369 38.3119 48.3903C38.3543 48.3484 38.3543 48.317 38.3861 48.2437C38.5027 48.0238 38.5769 47.8353 38.7253 47.6468C38.7537 47.6109 38.7786 47.5723 38.7995 47.5316C38.9161 47.3431 38.9903 47.1965 39.1069 47.008C39.1353 46.9721 39.1602 46.9335 39.1811 46.8928C39.3083 46.697 39.4463 46.5082 39.5945 46.3273C39.5943 46.3218 39.5953 46.3163 39.5974 46.3111C39.5995 46.306 39.6026 46.3013 39.6066 46.2974C39.6105 46.2935 39.6153 46.2904 39.6205 46.2883C39.6257 46.2863 39.6313 46.2853 39.6369 46.2854C39.7853 46.097 39.9019 45.9503 40.0503 45.7618C40.0787 45.7259 40.1036 45.6873 40.1245 45.6467C40.8069 44.902 41.5835 44.2474 42.4353 43.6989L43.6119 43.1334C44.2585 42.8716 49.781 40.2955 49.781 36.5151V17.1943L74.9347 61.8049C72.6981 60.7263 68.7337 58.7785 65.6704 57.2077C63.8896 56.3071 62.7236 53.1341 62.3844 51.9717L62.0452 50.6313C62.0452 49.9192 61.8544 49.2071 61.6318 48.5055C60.8331 46.2867 59.4718 44.3072 57.678 42.7564"/>
</mask>
<path d="M78.6341 62.5589L50.9046 13.4244C50.6693 12.9937 50.3204 12.6339 49.8949 12.3832C49.4695 12.1324 48.9833 12 48.4878 12C47.9924 12 47.5062 12.1324 47.0807 12.3832C46.6553 12.6339 46.3064 12.9937 46.0711 13.4244L18.3522 62.5589C17.6314 63.826 18.0448 65.4701 19.338 66.2241L47.0992 82.6232C47.5386 82.8701 48.0354 83 48.5408 83C49.0463 83 49.5431 82.8701 49.9824 82.6232L77.7013 66.2555C78.9309 65.4701 79.3867 63.826 78.6341 62.5589V62.5589ZM57.678 42.7564L56.9996 42.1909L56.9572 42.149C56.7413 41.9748 56.5148 41.8139 56.2788 41.6673L56.2364 41.6254C56.0138 41.4788 55.7806 41.3217 55.5156 41.1751C55.4732 41.1751 55.4732 41.1332 55.4414 41.1332C55.2188 40.9866 54.9538 40.8714 54.7206 40.7562C54.6782 40.7562 54.6782 40.7144 54.6464 40.7144C54.4238 40.5992 54.1588 40.4944 53.8938 40.3793C53.8514 40.3793 53.8514 40.3374 53.8196 40.3374C53.597 40.2641 53.3638 40.1489 53.1412 40.0756C52.5284 39.8487 51.8972 39.6736 51.2544 39.552C50.7668 40.484 50.0778 41.3113 49.3252 42.0129C50.5018 42.0862 51.636 42.3899 52.6536 42.7983C53.2555 43.0542 53.8367 43.3553 54.392 43.6989C54.4066 43.7004 54.4208 43.7049 54.4336 43.7121C54.4464 43.7193 54.4575 43.7291 54.4662 43.7408C54.6146 43.8141 54.7312 43.9292 54.8796 44.0444C54.9506 44.0832 55.0149 44.1327 55.0704 44.1911C55.2077 44.2793 55.3355 44.381 55.452 44.4947C55.5262 44.568 55.6004 44.6099 55.6746 44.6832C55.7912 44.7984 55.8972 44.8717 56.0138 44.9869L56.2364 45.2068L56.5438 45.5105L56.7664 45.7304C56.8467 45.8382 56.9353 45.9397 57.0314 46.0341C57.1056 46.1179 57.1798 46.2226 57.254 46.2959L57.4766 46.631C57.5508 46.7462 57.625 46.8195 57.6674 46.9347L57.89 47.2698C57.9642 47.385 58.0066 47.4897 58.0808 47.5735C58.155 47.6887 58.1974 47.7934 58.2716 47.9086C58.3458 48.0238 58.3882 48.1285 58.4624 48.2437C58.5048 48.3589 58.579 48.4636 58.6108 48.5788C58.685 48.7254 58.7274 48.8825 58.8016 48.9872C59.1199 49.7524 59.3372 50.5549 59.4482 51.3748L59.7874 52.6838C59.9358 53.2493 61.3032 58.0245 64.4726 59.6372C68.1083 61.5012 72.9101 63.826 74.7969 64.7161L49.887 79.4397V69.3552C49.887 67.753 53.0988 65.8785 54.5722 65.2502L54.6464 65.2083C54.9538 65.0617 55.2506 64.9046 55.558 64.7266L55.6746 64.6533C56.3199 64.2755 56.9269 63.8371 57.4872 63.3443C57.5296 63.3024 57.6038 63.271 57.6356 63.1977C57.7098 63.1558 57.7522 63.0825 57.8264 63.0511C58.0172 62.9045 58.1656 62.716 58.3564 62.5694L58.4306 62.4961C58.6267 62.3148 58.8042 62.1149 58.9606 61.8992C59.003 61.8259 59.0772 61.784 59.109 61.7107C59.2574 61.5641 59.374 61.3756 59.5224 61.1871C59.5648 61.1452 59.5966 61.0719 59.639 61.0405L60.0948 60.3702C60.0948 60.3284 60.1372 60.3284 60.1372 60.2969C60.328 59.9933 60.5188 59.6582 60.7096 59.3649C59.957 58.4643 59.3846 57.5009 58.9288 56.6003C58.7357 57.1539 58.4946 57.69 58.208 58.2025C58.0914 58.4225 57.943 58.6528 57.8264 58.8728C57.784 58.9146 57.784 58.9461 57.7522 58.9461C57.6352 59.1276 57.5078 59.3024 57.3706 59.4697C57.3282 59.5115 57.2964 59.5849 57.254 59.6163C57.1364 59.7928 56.9976 59.9545 56.8406 60.098C56.7982 60.1399 56.7982 60.1713 56.7664 60.1713C55.8548 61.1766 54.763 62.0353 53.5122 62.6322L53.2896 62.7474C52.643 63.0092 47.0886 65.512 47.0886 69.2819V79.3664L22.1258 64.6847C23.7476 63.7108 28.4433 60.9462 32.3017 59.7524C33.8175 59.2707 37.0293 61.2813 38.8419 62.7369L38.9585 62.8521C39.1921 63.0841 39.4437 63.2977 39.7111 63.4909L39.7853 63.5642C40.3577 64.0145 40.9619 64.4648 41.6403 64.7999L42.0961 65.0198C42.1107 65.0213 42.1249 65.0258 42.1376 65.033C42.1504 65.0402 42.1615 65.05 42.1703 65.0617C42.5837 65.2816 42.9971 65.4701 43.4529 65.6586C43.5146 65.6875 43.5784 65.712 43.6437 65.7319C43.6861 65.7319 43.7179 65.7738 43.7921 65.7738C44.4387 65.9937 45.0747 66.1822 45.7213 66.3393C46.2089 65.4073 46.9296 64.58 47.6928 63.8784C46.6299 63.807 45.5833 63.5812 44.5871 63.2082C44.5447 63.1663 44.4705 63.1663 44.4387 63.1348C44.3201 63.0993 44.2063 63.0501 44.0995 62.9882C44.0571 62.9463 43.9829 62.9464 43.9511 62.9149C43.8345 62.873 43.7285 62.7997 43.6437 62.7683C42.8911 62.3913 42.2021 61.9829 41.5661 61.4593L40.5803 60.5587C39.6692 59.7677 38.6823 59.0662 37.6335 58.4643C35.1743 57.082 33.0967 56.6317 31.5067 57.1239C28.2207 58.1711 24.4684 60.1503 22.2 61.4593L47.1204 17.2257V36.6198C47.1204 37.29 46.1029 39.0807 42.6579 40.6201L42.4353 40.7353C42.0961 40.8819 41.7887 41.0704 41.4495 41.2589L41.3753 41.3008C40.7232 41.6884 40.1029 42.1261 39.5203 42.6098C39.1532 42.9048 38.8128 43.2306 38.5027 43.5837L38.4603 43.6256C38.1252 43.9469 37.8201 44.2974 37.5487 44.6728L37.5063 44.7147C37.3579 44.9031 37.2413 45.0916 37.0929 45.2801C37.0929 45.322 37.0505 45.322 37.0505 45.3534C36.9339 45.5419 36.8279 45.6885 36.7113 45.877C36.7113 45.9189 36.6689 45.9189 36.6689 45.9503L36.3297 46.5158C36.2873 46.5577 36.2873 46.5891 36.2555 46.6624C36.1389 46.8509 36.0647 47.0394 35.9905 47.186C35.989 47.2005 35.9844 47.2145 35.9771 47.2271C35.9698 47.2397 35.9599 47.2507 35.9481 47.2593C35.8739 47.4478 35.7997 47.5944 35.7255 47.7829C35.6962 47.8439 35.6714 47.9069 35.6513 47.9714L35.4287 48.5369C35.3994 48.5979 35.3746 48.6609 35.3545 48.7254C35.3193 48.8662 35.2695 49.003 35.2061 49.1338C35.1637 49.2071 35.1637 49.2804 35.1319 49.3537C35.0895 49.5422 35.0153 49.7307 34.9835 49.8773C34.9411 49.9506 34.9411 50.0658 34.9093 50.1391C34.8669 50.2543 34.8669 50.4009 34.8351 50.5161C34.7927 50.6313 34.7927 50.736 34.7609 50.8512C34.7185 50.9978 34.7185 51.1549 34.6867 51.3015C34.6867 51.4167 34.6443 51.49 34.6443 51.6052C34.6443 51.7518 34.6019 51.867 34.6019 52.0136C34.6088 52.1511 34.5945 52.2888 34.5595 52.422V52.9875C34.555 53.664 34.6046 54.3398 34.7079 55.0086C35.6937 55.2285 36.7113 55.6474 37.8137 56.171C37.5063 55.1971 37.3579 54.1918 37.3261 53.1446V52.9561C37.3191 52.7075 37.3333 52.4588 37.3685 52.2126V52.0241C37.3685 51.8042 37.4109 51.6157 37.4427 51.3853V51.312C37.4851 51.0921 37.5169 50.8617 37.5593 50.5999C37.5593 50.5266 37.6017 50.4847 37.6017 50.4114C37.6441 50.2229 37.7183 50.0344 37.7501 49.8459C37.7501 49.804 37.7925 49.7726 37.7925 49.7307L38.0151 49.0605C38.0575 49.0186 38.0575 48.9453 38.0893 48.9139C38.1635 48.7254 38.2377 48.5369 38.3119 48.3903C38.3543 48.3484 38.3543 48.317 38.3861 48.2437C38.5027 48.0238 38.5769 47.8353 38.7253 47.6468C38.7537 47.6109 38.7786 47.5723 38.7995 47.5316C38.9161 47.3431 38.9903 47.1965 39.1069 47.008C39.1353 46.9721 39.1602 46.9335 39.1811 46.8928C39.3083 46.697 39.4463 46.5082 39.5945 46.3273C39.5943 46.3218 39.5953 46.3163 39.5974 46.3111C39.5995 46.306 39.6026 46.3013 39.6066 46.2974C39.6105 46.2935 39.6153 46.2904 39.6205 46.2883C39.6257 46.2863 39.6313 46.2853 39.6369 46.2854C39.7853 46.097 39.9019 45.9503 40.0503 45.7618C40.0787 45.7259 40.1036 45.6873 40.1245 45.6467C40.8069 44.902 41.5835 44.2474 42.4353 43.6989L43.6119 43.1334C44.2585 42.8716 49.781 40.2955 49.781 36.5151V17.1943L74.9347 61.8049C72.6981 60.7263 68.7337 58.7785 65.6704 57.2077C63.8896 56.3071 62.7236 53.1341 62.3844 51.9717L62.0452 50.6313C62.0452 49.9192 61.8544 49.2071 61.6318 48.5055C60.8331 46.2867 59.4718 44.3072 57.678 42.7564" fill="white"/>
<path d="M50.9046 13.4244L49.8077 14.0238L49.8118 14.0313L49.816 14.0388L50.9046 13.4244ZM48.4878 12L48.4878 13.25L48.4878 12ZM46.0711 13.4244L47.1598 14.0386L47.1639 14.0312L47.168 14.0238L46.0711 13.4244ZM18.3522 62.5589L19.4387 63.177L19.4409 63.1731L18.3522 62.5589ZM19.338 66.2241L19.9738 65.1478L19.9676 65.1442L19.338 66.2241ZM47.0992 82.6232L46.4635 83.6994L46.475 83.7063L46.4867 83.7128L47.0992 82.6232ZM49.9824 82.6232L50.595 83.7128L50.6066 83.7063L50.618 83.6995L49.9824 82.6232ZM77.7013 66.2555L78.3369 67.3318L78.3557 67.3207L78.3742 67.3089L77.7013 66.2555ZM56.9996 42.1909L56.1212 43.0802L56.1587 43.1173L56.1992 43.1511L56.9996 42.1909ZM56.9572 42.149L57.8356 41.2597L57.7911 41.2157L57.7423 41.1763L56.9572 42.149ZM56.2788 41.6673L55.4004 42.5566L55.5001 42.6551L55.6192 42.7291L56.2788 41.6673ZM56.2364 41.6254L57.1148 40.7361L57.027 40.6494L56.924 40.5815L56.2364 41.6254ZM55.5156 41.1751L56.1207 40.0813L55.8383 39.9251H55.5156V41.1751ZM55.4414 41.1332L54.7539 42.1772L55.0668 42.3832H55.4414V41.1332ZM54.7206 40.7562L55.2742 39.6355L55.0125 39.5062H54.7206V40.7562ZM54.6464 40.7144L54.0719 41.8245L54.3421 41.9644H54.6464V40.7144ZM53.8938 40.3793L54.3921 39.2329L54.1537 39.1293H53.8938V40.3793ZM53.8196 40.3374L53.4286 41.5246L53.6191 41.5874H53.8196V40.3374ZM53.1412 40.0756L52.7073 41.2478L52.7286 41.2557L52.7502 41.2628L53.1412 40.0756ZM51.2544 39.552L51.4868 38.3237L50.5764 38.1515L50.1468 38.9725L51.2544 39.552ZM49.3252 42.0129L48.4729 41.0986L46.3477 43.0798L49.2475 43.2605L49.3252 42.0129ZM52.6536 42.7983L53.1428 41.6479L53.131 41.643L53.1192 41.6382L52.6536 42.7983ZM54.392 43.6989L53.7343 44.7619L53.9782 44.9128L54.2635 44.9422L54.392 43.6989ZM54.4662 43.7408L53.4655 44.4898L53.6446 44.7291L53.9126 44.8615L54.4662 43.7408ZM54.8796 44.0444L54.1131 45.0319L54.1924 45.0934L54.2804 45.1415L54.8796 44.0444ZM55.0704 44.1911L54.1642 45.0521L54.2678 45.1611L54.3944 45.2425L55.0704 44.1911ZM55.452 44.4947L56.3305 43.6055L56.325 43.6001L55.452 44.4947ZM55.6746 44.6832L56.5531 43.794L55.6746 44.6832ZM56.0138 44.9869L55.1353 45.8762L56.0138 44.9869ZM56.7664 45.7304L57.7687 44.9835L57.7122 44.9077L57.6449 44.8412L56.7664 45.7304ZM57.0314 46.0341L57.9671 45.2053L57.9383 45.1728L57.9073 45.1423L57.0314 46.0341ZM57.254 46.2959L58.2952 45.6043L58.224 45.4971L58.1325 45.4067L57.254 46.2959ZM57.4766 46.631L58.5275 45.9541L58.5227 45.9467L58.5178 45.9394L57.4766 46.631ZM57.6674 46.9347L56.4943 47.3665L56.545 47.5041L56.6262 47.6263L57.6674 46.9347ZM57.89 47.2698L58.9409 46.5929L58.9361 46.5855L58.9312 46.5782L57.89 47.2698ZM58.0808 47.5735L59.1317 46.8966L59.0799 46.8163L59.0165 46.7447L58.0808 47.5735ZM58.4624 48.2437L59.6355 47.8119L59.5879 47.6826L59.5133 47.5668L58.4624 48.2437ZM58.6108 48.5788L57.4059 48.9114L57.4391 49.0318L57.4955 49.1433L58.6108 48.5788ZM58.8016 48.9872L59.9557 48.5072L59.9022 48.3784L59.8215 48.2645L58.8016 48.9872ZM59.4482 51.3748L58.2095 51.5425L58.2195 51.6163L58.2382 51.6884L59.4482 51.3748ZM59.7874 52.6838L58.5773 52.9974L58.5783 53.0011L59.7874 52.6838ZM64.4726 59.6372L65.0428 58.5249L65.0394 58.5231L64.4726 59.6372ZM74.7969 64.7161L75.4329 65.7922L77.4635 64.592L75.3302 63.5856L74.7969 64.7161ZM49.887 79.4397H48.637V81.6306L50.5231 80.5158L49.887 79.4397ZM54.5722 65.2502L55.0625 66.4L55.1263 66.3728L55.1867 66.3387L54.5722 65.2502ZM54.6464 65.2083L54.1083 64.08L54.0694 64.0986L54.0319 64.1198L54.6464 65.2083ZM55.558 64.7266L56.1844 65.8083L56.2041 65.7969L56.2233 65.7848L55.558 64.7266ZM55.6746 64.6533L55.0431 63.5746L55.026 63.5845L55.0093 63.595L55.6746 64.6533ZM57.4872 63.3443L58.3128 64.2828L58.34 64.259L58.3657 64.2335L57.4872 63.3443ZM57.6356 63.1977L57.0211 62.1092L56.6558 62.3154L56.4889 62.7002L57.6356 63.1977ZM57.8264 63.0511L58.3138 64.2021L58.4611 64.1398L58.588 64.0423L57.8264 63.0511ZM58.3564 62.5694L59.118 63.5605L59.1796 63.5132L59.2349 63.4586L58.3564 62.5694ZM58.4306 62.4961L57.5821 61.5781L57.5669 61.5922L57.5521 61.6068L58.4306 62.4961ZM58.9606 61.8992L59.9726 62.6328L60.0104 62.5807L60.0426 62.525L58.9606 61.8992ZM59.109 61.7107L58.2305 60.8214L58.0585 60.9914L57.9622 61.2132L59.109 61.7107ZM59.5224 61.1871L58.6439 60.2978L58.5884 60.3526L58.5402 60.4138L59.5224 61.1871ZM59.639 61.0405L60.3832 62.0448L60.5534 61.9186L60.6726 61.7434L59.639 61.0405ZM60.0948 60.3702L61.1284 61.0732L61.3448 60.755V60.3702H60.0948ZM60.1372 60.2969L59.0787 59.632L58.8872 59.9369V60.2969H60.1372ZM60.7096 59.3649L61.7573 60.0467L62.2612 59.2723L61.6688 58.5634L60.7096 59.3649ZM58.9288 56.6003L60.0441 56.0359L58.7166 53.4129L57.7485 56.1887L58.9288 56.6003ZM58.208 58.2025L57.1169 57.5926L57.1101 57.6047L57.1036 57.617L58.208 58.2025ZM57.8264 58.8728L58.7049 59.762L58.8411 59.6274L58.9308 59.4583L57.8264 58.8728ZM57.7522 58.9461V57.6961H57.0708L56.7016 58.2688L57.7522 58.9461ZM57.3706 59.4697L58.2491 60.3589L58.2956 60.3129L58.3371 60.2624L57.3706 59.4697ZM57.254 59.6163L56.5098 58.6119L56.3346 58.7417L56.2137 58.9232L57.254 59.6163ZM56.8406 60.098L55.9974 59.1752L55.9794 59.1916L55.9621 59.2087L56.8406 60.098ZM56.7664 60.1713V58.9213H56.2125L55.8404 59.3316L56.7664 60.1713ZM53.5122 62.6322L52.9739 61.5041L52.9556 61.5128L52.9377 61.522L53.5122 62.6322ZM53.2896 62.7474L53.7587 63.906L53.8125 63.8842L53.8641 63.8575L53.2896 62.7474ZM47.0886 79.3664L46.4549 80.4439L48.3386 81.5517V79.3664H47.0886ZM22.1258 64.6847L21.4823 63.6131L19.6791 64.6959L21.4921 65.7622L22.1258 64.6847ZM32.3017 59.7524L32.6712 60.9466L32.6803 60.9437L32.3017 59.7524ZM38.8419 62.7369L39.7204 61.8477L39.6747 61.8025L39.6246 61.7623L38.8419 62.7369ZM38.9585 62.8521L39.8393 61.9651L39.837 61.9629L38.9585 62.8521ZM39.7111 63.4909L40.5896 62.6016L40.5212 62.5341L40.4433 62.4778L39.7111 63.4909ZM39.7853 63.5642L38.9068 64.4534L38.957 64.503L39.0124 64.5466L39.7853 63.5642ZM41.6403 64.7999L41.0867 65.9207L41.0971 65.9257L41.6403 64.7999ZM42.0961 65.0198L41.5529 66.1456L41.7499 66.2407L41.9676 66.2632L42.0961 65.0198ZM42.1703 65.0617L41.1696 65.8107L41.3368 66.0342L41.5832 66.1653L42.1703 65.0617ZM43.4529 65.6586L43.9837 64.5269L43.9574 64.5146L43.9306 64.5035L43.4529 65.6586ZM43.6437 65.7319L43.2801 66.9279L43.4579 66.9819H43.6437V65.7319ZM43.7921 65.7738L44.1946 64.5904L43.9988 64.5238H43.7921V65.7738ZM45.7213 66.3393L45.4262 67.5539L46.3758 67.7846L46.8288 66.9187L45.7213 66.3393ZM47.6928 63.8784L48.5388 64.7986L50.6842 62.8263L47.7765 62.6312L47.6928 63.8784ZM44.5871 63.2082L43.7086 64.0974L43.8986 64.2851L44.1487 64.3788L44.5871 63.2082ZM44.4387 63.1348L45.3172 62.2456L45.0957 62.0268L44.7974 61.9374L44.4387 63.1348ZM44.0995 62.9882L43.221 63.8775L43.3346 63.9898L43.4729 64.0698L44.0995 62.9882ZM43.9511 62.9149L44.8296 62.0257L44.6333 61.8318L44.3737 61.7385L43.9511 62.9149ZM43.6437 62.7683L43.0838 63.8859L43.1451 63.9167L43.2094 63.9405L43.6437 62.7683ZM41.5661 61.4593L40.723 62.3822L40.7467 62.4039L40.7716 62.4244L41.5661 61.4593ZM40.5803 60.5587L41.4234 59.6359L41.4117 59.6252L41.3998 59.6149L40.5803 60.5587ZM37.6335 58.4643L38.2557 57.3801L38.246 57.3747L37.6335 58.4643ZM31.5067 57.1239L31.1371 55.9298L31.1272 55.9329L31.5067 57.1239ZM22.2 61.4593L21.1109 60.8458L18.8694 64.8245L22.8247 62.542L22.2 61.4593ZM47.1204 17.2257H48.3704V12.4604L46.0314 16.6122L47.1204 17.2257ZM42.6579 40.6201L42.1479 39.4789L42.1152 39.4935L42.0834 39.51L42.6579 40.6201ZM42.4353 40.7353L42.9312 41.8827L42.9711 41.8655L43.0098 41.8455L42.4353 40.7353ZM41.4495 41.2589L40.8423 40.1662L40.835 40.1703L41.4495 41.2589ZM41.3753 41.3008L40.7608 40.2122L40.7486 40.2191L40.7366 40.2263L41.3753 41.3008ZM39.5203 42.6098L40.3033 43.5841L40.3111 43.5779L40.3187 43.5715L39.5203 42.6098ZM38.5027 43.5837L39.3812 44.4729L39.4127 44.4418L39.4419 44.4085L38.5027 43.5837ZM38.4603 43.6256L39.3255 44.5277L39.3322 44.5213L39.3388 44.5148L38.4603 43.6256ZM37.5487 44.6728L38.4272 45.562L38.5009 45.4892L38.5616 45.4052L37.5487 44.6728ZM37.5063 44.7147L36.6278 43.8254L36.5724 43.8802L36.5241 43.9414L37.5063 44.7147ZM37.0929 45.2801L36.1107 44.5069L35.8429 44.8471V45.2801H37.0929ZM37.0505 45.3534L38.1136 46.011L38.3005 45.7088V45.3534H37.0505ZM36.7113 45.877L35.6482 45.2195L35.4613 45.5217V45.877H36.7113ZM36.6689 45.9503L37.7408 46.5933L37.9189 46.2965V45.9503H36.6689ZM36.3297 46.5158L37.2082 47.4051L37.3205 47.2941L37.4016 47.1588L36.3297 46.5158ZM36.2555 46.6624L37.3186 47.32L37.3662 47.243L37.4022 47.1599L36.2555 46.6624ZM35.9905 47.186L34.8752 46.6216L34.7716 46.8263L34.7475 47.0544L35.9905 47.186ZM35.9481 47.2593L35.2107 46.25L34.9178 46.464L34.785 46.8015L35.9481 47.2593ZM35.7255 47.7829L36.8522 48.3243L36.8719 48.2832L36.8886 48.2408L35.7255 47.7829ZM35.6513 47.9714L36.8144 48.4293L36.8312 48.3868L36.8447 48.3432L35.6513 47.9714ZM35.4287 48.5369L36.5554 49.0783L36.5751 49.0372L36.5918 48.9948L35.4287 48.5369ZM35.3545 48.7254L34.1611 48.3537L34.1505 48.3875L34.1419 48.4218L35.3545 48.7254ZM35.2061 49.1338L36.2881 49.7597L36.3109 49.7203L36.3308 49.6793L35.2061 49.1338ZM35.1319 49.3537L33.9852 48.8563L33.9382 48.9644L33.9124 49.0794L35.1319 49.3537ZM34.9835 49.8773L36.0655 50.5032L36.1636 50.3337L36.2051 50.1423L34.9835 49.8773ZM34.9093 50.1391L33.7626 49.6417L33.7485 49.6741L33.7362 49.7074L34.9093 50.1391ZM34.8351 50.5161L36.0082 50.9479L36.0262 50.899L36.04 50.8488L34.8351 50.5161ZM34.7609 50.8512L35.9617 51.1985L35.9638 51.1912L35.9658 51.1839L34.7609 50.8512ZM34.6867 51.3015L33.4651 51.0365L33.4367 51.1675V51.3015H34.6867ZM34.6019 52.0136H33.3519V52.0451L33.3535 52.0765L34.6019 52.0136ZM34.5595 52.422L33.3506 52.1041L33.3095 52.2604V52.422H34.5595ZM34.5595 52.9875L35.8095 52.9958V52.9875H34.5595ZM34.7079 55.0086L33.4725 55.1993L33.6028 56.0428L34.4357 56.2286L34.7079 55.0086ZM37.8137 56.171L37.2774 57.3001L39.8695 58.5312L39.0057 55.7947L37.8137 56.171ZM37.3261 53.1446H36.0761V53.1636L36.0767 53.1825L37.3261 53.1446ZM37.3261 52.9561H38.5761V52.9384L38.5756 52.9208L37.3261 52.9561ZM37.3685 52.2126L38.6059 52.3897L38.6185 52.3016V52.2126H37.3685ZM37.4427 51.3853L38.681 51.5562L38.6927 51.4712V51.3853H37.4427ZM37.4427 51.312L36.2153 51.0753L36.1927 51.1926V51.312H37.4427ZM37.5593 50.5999L38.7932 50.7997L38.8093 50.7005V50.5999H37.5593ZM37.6017 50.4114L36.3822 50.1371L36.3517 50.2725V50.4114H37.6017ZM37.7501 49.8459L38.9827 50.0539L39.0001 49.9506V49.8459H37.7501ZM37.7925 49.7307L36.6062 49.3367L36.5425 49.5286V49.7307H37.7925ZM38.0151 49.0605L37.1366 48.1713L36.9233 48.382L36.8288 48.6665L38.0151 49.0605ZM38.0893 48.9139L38.9678 49.8031L39.1557 49.6175L39.2524 49.3718L38.0893 48.9139ZM38.3119 48.3903L37.4334 47.5011L37.2885 47.6442L37.1966 47.8258L38.3119 48.3903ZM38.3861 48.2437L37.2817 47.6582L37.2588 47.7014L37.2393 47.7462L38.3861 48.2437ZM38.7253 47.6468L37.7452 46.8709L37.7431 46.8736L38.7253 47.6468ZM38.7995 47.5316L37.7364 46.874L37.7103 46.9162L37.6877 46.9603L38.7995 47.5316ZM39.1069 47.008L38.1268 46.2321L38.0819 46.2889L38.0438 46.3504L39.1069 47.008ZM39.1811 46.8928L38.1329 46.2117L38.0983 46.265L38.0693 46.3216L39.1811 46.8928ZM39.5945 46.3273L40.5616 47.1193L40.8563 46.7595L40.8441 46.2945L39.5945 46.3273ZM39.6369 46.2854L39.6048 47.535L40.2313 47.5511L40.619 47.0587L39.6369 46.2854ZM40.0503 45.7618L39.0702 44.986L39.0681 44.9886L40.0503 45.7618ZM40.1245 45.6467L39.2029 44.8021L39.0894 44.926L39.0127 45.0754L40.1245 45.6467ZM42.4353 43.6989L41.8938 42.5722L41.8238 42.6059L41.7585 42.6479L42.4353 43.6989ZM43.6119 43.1334L43.1427 41.9747L43.1061 41.9896L43.0704 42.0067L43.6119 43.1334ZM49.781 17.1943L50.8699 16.5804L48.531 12.4324V17.1943H49.781ZM74.9347 61.8049L74.3917 62.9308L77.9804 64.6615L76.0236 61.191L74.9347 61.8049ZM65.6704 57.2077L66.2407 56.0954L66.2345 56.0922L65.6704 57.2077ZM62.3844 51.9717L61.1726 52.2784L61.1781 52.3002L61.1844 52.3219L62.3844 51.9717ZM62.0452 50.6313H60.7952V50.787L60.8334 50.938L62.0452 50.6313ZM61.6318 48.5055L62.8233 48.1275L62.816 48.1047L62.8079 48.0822L61.6318 48.5055ZM79.7227 61.9445L51.9932 12.81L49.816 14.0388L77.5455 63.1733L79.7227 61.9445ZM52.0016 12.825C51.6573 12.1951 51.1482 11.6708 50.5296 11.3063L49.2603 13.46C49.4927 13.597 49.6812 13.7923 49.8077 14.0238L52.0016 12.825ZM50.5296 11.3063C49.9112 10.9418 49.2057 10.75 48.4878 10.75L48.4878 13.25C48.7608 13.25 49.0277 13.323 49.2603 13.46L50.5296 11.3063ZM48.4878 10.75C47.7699 10.75 47.0645 10.9418 46.4461 11.3063L47.7154 13.46C47.9479 13.323 48.2149 13.25 48.4878 13.25L48.4878 10.75ZM46.4461 11.3063C45.8275 11.6708 45.3184 12.1951 44.9741 12.825L47.168 14.0238C47.2944 13.7923 47.483 13.597 47.7154 13.46L46.4461 11.3063ZM44.9823 12.8102L17.2635 61.9447L19.4409 63.1731L47.1598 14.0386L44.9823 12.8102ZM17.2657 61.9408C16.2121 63.7929 16.8128 66.1987 18.7084 67.3039L19.9676 65.1442C19.2768 64.7415 19.0506 63.8591 19.4387 63.1769L17.2657 61.9408ZM18.7022 67.3003L46.4635 83.6994L47.735 81.5469L19.9737 65.1478L18.7022 67.3003ZM46.4867 83.7128C47.1137 84.0652 47.8215 84.25 48.5408 84.25V81.75C48.2493 81.75 47.9635 81.675 47.7118 81.5335L46.4867 83.7128ZM48.5408 84.25C49.2602 84.25 49.968 84.0652 50.595 83.7128L49.3699 81.5335C49.1182 81.675 48.8324 81.75 48.5408 81.75V84.25ZM50.618 83.6995L78.3369 67.3318L77.0657 65.1791L49.3469 81.5468L50.618 83.6995ZM78.3742 67.3089C80.1304 66.1871 80.8307 63.8094 79.7088 61.9206L77.5594 63.1972C77.9427 63.8426 77.7313 64.7531 77.0284 65.2021L78.3742 67.3089ZM58.4784 41.7962L57.8 41.2307L56.1992 43.1511L56.8776 43.7166L58.4784 41.7962ZM57.878 41.3016L57.8356 41.2597L56.0788 43.0383L56.1212 43.0802L57.878 41.3016ZM57.7423 41.1763C57.4864 40.9698 57.218 40.7792 56.9384 40.6055L55.6192 42.7291C55.8116 42.8486 55.9962 42.9797 56.1721 43.1217L57.7423 41.1763ZM57.1572 40.778L57.1148 40.7361L55.358 42.5147L55.4004 42.5566L57.1572 40.778ZM56.924 40.5815C56.7163 40.4447 56.4374 40.2566 56.1207 40.0813L54.9105 42.2689C55.1238 42.3869 55.3113 42.5129 55.5489 42.6693L56.924 40.5815ZM55.5156 39.9251C55.6148 39.9251 55.7234 39.9376 55.8363 39.969C55.95 40.0006 56.0516 40.0468 56.1399 40.1004C56.2262 40.1529 56.291 40.2072 56.3348 40.2481C56.3566 40.2684 56.3739 40.2861 56.3861 40.299C56.3981 40.3117 56.4069 40.3216 56.4102 40.3253C56.4119 40.3272 56.4131 40.3286 56.4127 40.3281C56.4125 40.3279 56.4126 40.328 56.4123 40.3276C56.4121 40.3274 56.4118 40.3271 56.4115 40.3267C56.4108 40.326 56.4098 40.3249 56.4087 40.3235C56.4045 40.3188 56.3938 40.3068 56.3801 40.2921C56.366 40.2771 56.3455 40.2558 56.3197 40.2316C56.2937 40.2072 56.2603 40.1779 56.2198 40.1469C56.1371 40.0836 56.0248 40.0137 55.882 39.9613C55.8113 39.9354 55.7378 39.9156 55.662 39.9023C55.5864 39.8891 55.5125 39.8832 55.4414 39.8832V42.3832C55.3743 42.3832 55.3041 42.3777 55.232 42.3651C55.1598 42.3525 55.0895 42.3335 55.022 42.3088C54.8854 42.2587 54.7787 42.192 54.7011 42.1327C54.6631 42.1037 54.6322 42.0765 54.6086 42.0543C54.5852 42.0323 54.567 42.0134 54.5553 42.0009C54.5438 41.9887 54.5354 41.9791 54.5335 41.977C54.5326 41.976 54.5317 41.9749 54.533 41.9763C54.5337 41.9771 54.536 41.9798 54.5388 41.983C54.5444 41.9894 54.5557 42.0019 54.5701 42.0171C54.5847 42.0326 54.6046 42.0529 54.629 42.0757C54.678 42.1215 54.7485 42.1803 54.8413 42.2367C54.936 42.2943 55.0449 42.3438 55.1668 42.3777C55.2879 42.4113 55.4058 42.4251 55.5156 42.4251V39.9251ZM56.129 40.0893C55.8204 39.8861 55.4275 39.7112 55.2742 39.6355L54.167 41.877C54.4801 42.0316 54.6172 42.0871 54.7539 42.1772L56.129 40.0893ZM54.7206 39.5062C54.8198 39.5062 54.9284 39.5187 55.0413 39.5501C55.155 39.5817 55.2566 39.6279 55.3449 39.6816C55.4312 39.734 55.496 39.7883 55.5398 39.8292C55.5616 39.8495 55.5789 39.8672 55.5911 39.8801C55.6031 39.8928 55.6119 39.9027 55.6152 39.9065C55.6169 39.9083 55.6181 39.9097 55.6177 39.9092C55.6175 39.909 55.6176 39.9091 55.6173 39.9088C55.6171 39.9086 55.6168 39.9082 55.6165 39.9079C55.6158 39.9071 55.6148 39.906 55.6137 39.9047C55.6095 39.8999 55.5988 39.8879 55.5851 39.8732C55.571 39.8582 55.5505 39.837 55.5247 39.8127C55.4987 39.7883 55.4653 39.759 55.4248 39.728C55.3421 39.6647 55.2298 39.5948 55.087 39.5424C55.0163 39.5166 54.9428 39.4967 54.867 39.4834C54.7914 39.4702 54.7175 39.4644 54.6464 39.4644V41.9644C54.5793 41.9644 54.5092 41.9588 54.437 41.9462C54.3648 41.9336 54.2945 41.9146 54.227 41.8899C54.0904 41.8398 53.9837 41.7731 53.9061 41.7138C53.8681 41.6848 53.8372 41.6576 53.8136 41.6354C53.7902 41.6134 53.772 41.5946 53.7603 41.582C53.7488 41.5698 53.7404 41.5603 53.7385 41.5581C53.7376 41.5571 53.7367 41.556 53.738 41.5575C53.7387 41.5583 53.741 41.5609 53.7438 41.5641C53.7495 41.5705 53.7607 41.583 53.7751 41.5983C53.7897 41.6137 53.8096 41.634 53.834 41.6568C53.883 41.7026 53.9535 41.7614 54.0463 41.8178C54.141 41.8754 54.2499 41.9249 54.3718 41.9588C54.4929 41.9925 54.6108 42.0062 54.7206 42.0062V39.5062ZM55.2209 39.6042C54.9484 39.4632 54.5991 39.3228 54.3921 39.2329L53.3955 41.5256C53.7185 41.666 53.8992 41.7351 54.0719 41.8245L55.2209 39.6042ZM53.8938 39.1293C53.993 39.1293 54.1017 39.1417 54.2146 39.1731C54.3283 39.2047 54.4299 39.2509 54.5182 39.3046C54.6045 39.3571 54.6693 39.4114 54.7131 39.4523C54.7348 39.4726 54.7522 39.4903 54.7644 39.5032C54.7764 39.5159 54.7852 39.5258 54.7885 39.5295C54.7902 39.5314 54.7914 39.5328 54.7909 39.5323C54.7908 39.5321 54.7908 39.5322 54.7905 39.5318C54.7903 39.5316 54.7901 39.5313 54.7897 39.5309C54.7891 39.5302 54.7881 39.5291 54.7869 39.5277C54.7828 39.523 54.7721 39.511 54.7584 39.4963C54.7443 39.4813 54.7238 39.46 54.698 39.4358C54.672 39.4114 54.6386 39.382 54.5981 39.351C54.5154 39.2878 54.4031 39.2178 54.2602 39.1655C54.1896 39.1396 54.116 39.1197 54.0402 39.1065C53.9646 39.0933 53.8907 39.0874 53.8196 39.0874V41.5874C53.7525 41.5874 53.6823 41.5818 53.6102 41.5692C53.5379 41.5566 53.4677 41.5376 53.4002 41.5129C53.2635 41.4628 53.1568 41.3961 53.0792 41.3368C53.0413 41.3077 53.0104 41.2805 52.9868 41.2584C52.9634 41.2364 52.9452 41.2175 52.9334 41.2049C52.922 41.1927 52.9136 41.1832 52.9117 41.1811C52.9108 41.18 52.9098 41.1789 52.9111 41.1804C52.9118 41.1812 52.9142 41.1839 52.917 41.1871C52.9226 41.1934 52.9338 41.206 52.9482 41.2212C52.9629 41.2367 52.9827 41.257 53.0071 41.2797C53.0562 41.3255 53.1267 41.3844 53.2194 41.4408C53.3142 41.4984 53.423 41.5479 53.5449 41.5818C53.6661 41.6155 53.784 41.6293 53.8938 41.6293V39.1293ZM54.2106 39.1501C54.1511 39.1305 54.0808 39.1021 53.9581 39.0513C53.8529 39.0078 53.6953 38.942 53.5322 38.8883L52.7502 41.2628C52.8097 41.2824 52.88 41.3108 53.0027 41.3616C53.1079 41.4051 53.2655 41.4709 53.4286 41.5246L54.2106 39.1501ZM53.5751 38.9033C52.8967 38.6522 52.1981 38.4583 51.4868 38.3237L51.0221 40.7802C51.5963 40.8888 52.16 41.0453 52.7073 41.2478L53.5751 38.9033ZM50.1468 38.9725C49.7404 39.7495 49.1499 40.4674 48.4729 41.0986L50.1776 42.9272C51.0057 42.1552 51.7933 41.2185 52.362 40.1314L50.1468 38.9725ZM49.2475 43.2605C50.2632 43.3237 51.2655 43.5881 52.188 43.9583L53.1192 41.6382C52.0066 41.1917 50.7405 40.8486 49.403 40.7653L49.2475 43.2605ZM52.1645 43.9486C52.7081 44.1798 53.233 44.4517 53.7343 44.7619L55.0497 42.6359C54.4404 42.2589 53.8029 41.9286 53.1428 41.6479L52.1645 43.9486ZM54.2635 44.9422C54.1077 44.9261 53.9564 44.8781 53.8191 44.8006L55.0481 42.6236C54.8852 42.5316 54.7055 42.4746 54.5205 42.4555L54.2635 44.9422ZM53.8191 44.8006C53.6818 44.7231 53.5611 44.6176 53.4655 44.4898L55.4669 42.9917C55.3538 42.8406 55.2109 42.7155 55.0481 42.6236L53.8191 44.8006ZM53.9126 44.8615C53.8724 44.8416 53.8595 44.8273 53.8978 44.8576C53.9181 44.8736 53.9389 44.8908 53.9779 44.923C54.0127 44.9517 54.0602 44.9907 54.1131 45.0319L55.6461 43.057C55.6249 43.0405 55.6021 43.022 55.5687 42.9944C55.5395 42.9703 55.494 42.9325 55.448 42.8962C55.3538 42.8218 55.2084 42.7132 55.0198 42.62L53.9126 44.8615ZM54.2804 45.1415C54.2378 45.1182 54.1985 45.0881 54.1642 45.0521L55.9766 43.33C55.8314 43.1772 55.6633 43.0482 55.4788 42.9474L54.2804 45.1415ZM54.3944 45.2425C54.461 45.2853 54.5228 45.3346 54.579 45.3893L56.325 43.6001C56.1482 43.4275 55.9543 43.2733 55.7465 43.1396L54.3944 45.2425ZM54.5735 45.384C54.6711 45.4804 54.765 45.5517 54.7969 45.5764C54.8392 45.6093 54.8195 45.5955 54.7961 45.5725L56.5531 43.794C56.4555 43.6976 56.3616 43.6263 56.3298 43.6015C56.2874 43.5687 56.3071 43.5824 56.3305 43.6055L54.5735 45.384ZM54.7961 45.5725C54.8931 45.6683 54.9836 45.7443 55.0364 45.789C55.0949 45.8386 55.1157 45.8568 55.1353 45.8762L56.8923 44.0977C56.7953 44.0018 56.7048 43.9258 56.652 43.8811C56.5935 43.8316 56.5727 43.8133 56.5531 43.794L54.7961 45.5725ZM55.1353 45.8762L55.3579 46.0961L57.1149 44.3176L56.8923 44.0977L55.1353 45.8762ZM55.3579 46.0961L55.6653 46.3998L57.4223 44.6213L57.1149 44.3176L55.3579 46.0961ZM55.6653 46.3998L55.8879 46.6197L57.6449 44.8412L57.4223 44.6213L55.6653 46.3998ZM55.7641 46.4773C55.8828 46.6367 56.0137 46.7866 56.1555 46.9259L57.9073 45.1423C57.8569 45.0929 57.8106 45.0398 57.7687 44.9835L55.7641 46.4773ZM56.0957 46.8629C56.1086 46.8776 56.118 46.8899 56.1713 46.9556C56.2087 47.0018 56.2841 47.0949 56.3755 47.1852L58.1325 45.4067C58.1444 45.4184 58.1488 45.4239 58.1436 45.4179C58.1384 45.4119 58.1299 45.4018 58.1141 45.3823C58.1049 45.371 58.0741 45.3325 58.0557 45.31C58.0325 45.2815 58.0018 45.2445 57.9671 45.2053L56.0957 46.8629ZM56.2128 46.9876L56.4354 47.3227L58.5178 45.9394L58.2952 45.6043L56.2128 46.9876ZM56.4257 47.3079C56.4626 47.3652 56.4967 47.4128 56.5202 47.4452C56.526 47.4533 56.5316 47.4609 56.5363 47.4673C56.5414 47.4743 56.5449 47.479 56.5486 47.4842C56.556 47.4942 56.5594 47.499 56.5613 47.5017C56.5672 47.5101 56.5271 47.4554 56.4943 47.3665L58.8405 46.5029C58.7653 46.2988 58.6669 46.1499 58.6065 46.064C58.5831 46.0307 58.5487 45.9839 58.5433 45.9766C58.5371 45.968 58.5333 45.9627 58.5307 45.959C58.5283 45.9554 58.5274 45.954 58.5275 45.9541L56.4257 47.3079ZM56.6262 47.6263L56.8488 47.9614L58.9312 46.5782L58.7086 46.2431L56.6262 47.6263ZM56.8391 47.9467C56.8521 47.9669 56.8471 47.9608 56.8999 48.0533C56.938 48.1199 57.0189 48.2598 57.1451 48.4023L59.0165 46.7447C59.0445 46.7763 59.0625 46.802 59.0708 46.8144C59.0781 46.8255 59.0797 46.829 59.0709 46.8136C59.0666 46.8061 59.0618 46.7975 59.054 46.7836C59.047 46.7711 59.0372 46.7536 59.0268 46.7353C59.0054 46.6979 58.9765 46.6482 58.9409 46.5929L56.8391 47.9467ZM57.0299 48.2504C57.0343 48.2572 57.0403 48.2672 57.0718 48.3266C57.0986 48.3771 57.1509 48.4771 57.2207 48.5855L59.3225 47.2317C59.3181 47.2249 59.3121 47.2149 59.2806 47.1555C59.2538 47.105 59.2015 47.005 59.1317 46.8966L57.0299 48.2504ZM57.2207 48.5855C57.2251 48.5923 57.2311 48.6023 57.2626 48.6617C57.2894 48.7123 57.3417 48.8122 57.4115 48.9206L59.5133 47.5668C59.5089 47.56 59.5029 47.55 59.4714 47.4906C59.4446 47.44 59.3923 47.3401 59.3225 47.2317L57.2207 48.5855ZM57.2893 48.6755C57.319 48.756 57.3501 48.8237 57.3731 48.8715C57.3935 48.9137 57.4186 48.9625 57.4253 48.9757C57.4369 48.9988 57.4369 48.9995 57.4338 48.9923C57.43 48.9837 57.4179 48.9549 57.4059 48.9114L59.8157 48.2462C59.7632 48.0558 59.6837 47.9019 59.6559 47.8468C59.6347 47.8051 59.6314 47.7989 59.6249 47.7854C59.6211 47.7776 59.627 47.789 59.6355 47.8119L57.2893 48.6755ZM57.4955 49.1433C57.4954 49.143 57.4964 49.1451 57.4989 49.1505C57.5014 49.156 57.5047 49.1636 57.5094 49.1748C57.5244 49.2103 57.5263 49.2163 57.5506 49.2753C57.568 49.3175 57.5949 49.3815 57.6286 49.4503C57.6625 49.5193 57.7121 49.6117 57.7817 49.7099L59.8215 48.2645C59.854 48.3103 59.8705 48.3438 59.8732 48.3494C59.8758 48.3547 59.8735 48.3506 59.8618 48.3222C59.8559 48.3079 59.8506 48.2947 59.8419 48.2735C59.8341 48.2543 59.8243 48.2303 59.8135 48.2047C59.7921 48.1539 59.763 48.0872 59.7261 48.0143L57.4955 49.1433ZM57.6474 49.4673C57.9242 50.1326 58.113 50.8301 58.2095 51.5425L60.6869 51.2071C60.5613 50.2796 60.3155 49.3722 59.9557 48.5072L57.6474 49.4673ZM58.2382 51.6884L58.5774 52.9974L60.9974 52.3703L60.6582 51.0613L58.2382 51.6884ZM58.5783 53.0011C58.6658 53.3344 59.0728 54.7647 59.8863 56.341C60.6831 57.8851 61.9694 59.766 63.9057 60.7513L65.0394 58.5231C63.8063 57.8957 62.8242 56.5826 62.1079 55.1946C61.4082 53.8388 61.0574 52.5987 60.9964 52.3665L58.5783 53.0011ZM63.9023 60.7495C67.5532 62.6213 72.3677 64.9522 74.2636 65.8466L75.3302 63.5856C73.4525 62.6998 68.6635 60.3811 65.0428 58.5249L63.9023 60.7495ZM74.1609 63.64L49.251 78.3636L50.5231 80.5158L75.4329 65.7922L74.1609 63.64ZM51.137 79.4397V69.3552H48.637V79.4397H51.137ZM51.137 69.3552C51.137 69.3618 51.1443 69.2161 51.3933 68.9004C51.627 68.6042 51.984 68.273 52.4317 67.934C53.3264 67.2565 54.4064 66.6798 55.0625 66.4L54.0819 64.1004C53.2646 64.4489 52.002 65.1236 50.9225 65.9409C50.3831 66.3494 49.845 66.8265 49.4305 67.352C49.0313 67.8581 48.637 68.5475 48.637 69.3552H51.137ZM55.1867 66.3387L55.2609 66.2968L54.0319 64.1198L53.9577 64.1617L55.1867 66.3387ZM55.1845 66.3365C55.5239 66.1747 55.8502 66.0019 56.1844 65.8083L54.9316 63.6449C54.6511 63.8073 54.3837 63.9487 54.1083 64.08L55.1845 66.3365ZM56.2233 65.7848L56.3399 65.7115L55.0093 63.595L54.8927 63.6683L56.2233 65.7848ZM56.3062 65.732C57.0204 65.3139 57.6924 64.8286 58.3128 64.2828L56.6616 62.4057C56.1615 62.8456 55.6195 63.2371 55.0431 63.5746L56.3062 65.732ZM58.3657 64.2335C58.3349 64.264 58.3089 64.2859 58.2941 64.2979C58.2863 64.3043 58.2801 64.3091 58.2763 64.3121C58.2725 64.315 58.27 64.3168 58.2699 64.3169C58.2559 64.3273 58.3095 64.2882 58.3461 64.259C58.4382 64.1853 58.6478 64.0053 58.7823 63.6951L56.4889 62.7002C56.5916 62.4634 56.7481 62.3358 56.7846 62.3066C56.7948 62.2985 56.8014 62.2936 56.7998 62.2948C56.7988 62.2955 56.7977 62.2964 56.7936 62.2994C56.7903 62.3018 56.7842 62.3062 56.7777 62.3111C56.7649 62.3206 56.7417 62.3381 56.7148 62.36C56.6876 62.3821 56.6501 62.4141 56.6087 62.4551L58.3657 64.2335ZM58.2501 64.2862C58.3598 64.2243 58.4426 64.1592 58.4965 64.1133C58.5234 64.0905 58.5456 64.0702 58.5603 64.0565C58.5677 64.0496 58.5742 64.0435 58.5787 64.0392C58.5849 64.0334 58.5853 64.0329 58.5886 64.0299C58.5932 64.0255 58.5892 64.0293 58.5818 64.0359C58.5739 64.0429 58.5582 64.0565 58.5366 64.0731C58.4927 64.1068 58.4177 64.1582 58.3138 64.2021L57.339 61.9C57.198 61.9597 57.0899 62.032 57.0148 62.0896C56.9447 62.1434 56.8903 62.1951 56.8734 62.211C56.8437 62.239 56.8605 62.2229 56.876 62.2097C56.8988 62.1903 56.9485 62.1501 57.0211 62.1092L58.2501 64.2862ZM58.588 64.0423C58.7552 63.9138 58.894 63.7744 58.9699 63.6994C59.0636 63.6068 59.0944 63.5787 59.118 63.5605L57.5948 61.5782C57.4276 61.7066 57.2888 61.846 57.2129 61.921C57.1192 62.0136 57.0884 62.0417 57.0648 62.0599L58.588 64.0423ZM59.2349 63.4586L59.3091 63.3853L57.5521 61.6068L57.4779 61.6801L59.2349 63.4586ZM59.2791 63.414C59.5355 63.177 59.7678 62.9153 59.9726 62.6328L57.9486 61.1655C57.8406 61.3144 57.7179 61.4526 57.5821 61.5781L59.2791 63.414ZM60.0426 62.525C60.0003 62.5982 59.9589 62.6482 59.9392 62.6707C59.9258 62.6862 59.9093 62.7029 59.9377 62.6735C59.9538 62.6568 60.0063 62.603 60.0611 62.5332C60.1196 62.4587 60.194 62.3504 60.2557 62.2081L57.9622 61.2132C58.008 61.1076 58.0612 61.032 58.0956 60.9882C58.1126 60.9666 58.1265 60.951 58.1336 60.9431C58.1403 60.9357 58.1442 60.9318 58.1398 60.9364C58.1367 60.9396 58.1362 60.94 58.1304 60.9461C58.1261 60.9505 58.1198 60.957 58.1128 60.9643C58.099 60.9789 58.0784 61.0008 58.0552 61.0274C58.0087 61.0808 57.9421 61.1634 57.8786 61.2733L60.0426 62.525ZM59.9875 62.5999C60.131 62.4581 60.2427 62.3127 60.3184 62.2109C60.4127 62.0843 60.4427 62.0388 60.5045 61.9603L58.5402 60.4138C58.4537 60.5238 58.3512 60.6668 58.3129 60.7182C58.2562 60.7945 58.2354 60.8166 58.2305 60.8214L59.9875 62.5999ZM60.4009 62.0763C60.4426 62.0351 60.4764 61.9966 60.5022 61.9654C60.528 61.934 60.5491 61.9059 60.5647 61.8845C60.5801 61.8631 60.5929 61.8445 60.601 61.8326C60.6051 61.8265 60.6088 61.821 60.6113 61.8172C60.6143 61.8128 60.6155 61.811 60.6169 61.809C60.6195 61.8051 60.6172 61.8086 60.6126 61.815C60.6079 61.8216 60.5977 61.8357 60.5829 61.8541C60.5683 61.8723 60.5454 61.8994 60.5146 61.9307C60.484 61.9618 60.4403 62.0024 60.3832 62.0448L58.8948 60.0361C58.7648 60.1325 58.6786 60.2329 58.6348 60.2874C58.5896 60.3436 58.5551 60.3949 58.5445 60.4106C58.5245 60.4403 58.5338 60.4264 58.5404 60.4173C58.5494 60.4049 58.5852 60.3558 58.6439 60.2978L60.4009 62.0763ZM60.6726 61.7434L61.1284 61.0732L59.0612 59.6673L58.6054 60.3375L60.6726 61.7434ZM61.3448 60.3702C61.3448 60.4722 61.3316 60.5835 61.2988 60.6988C61.2658 60.8148 61.2177 60.9177 61.1624 61.0064C61.1085 61.0931 61.0529 61.1577 61.0115 61.2009C60.9909 61.2225 60.973 61.2396 60.9599 61.2516C60.9472 61.2634 60.9372 61.2721 60.9334 61.2753C60.9315 61.277 60.9301 61.2782 60.9307 61.2777C60.9308 61.2776 60.9308 61.2776 60.9311 61.2773C60.9313 61.2772 60.9316 61.2769 60.932 61.2766C60.9327 61.2759 60.9339 61.2749 60.9352 61.2738C60.94 61.2697 60.9522 61.2592 60.967 61.2457C60.9821 61.2318 61.0036 61.2116 61.0282 61.186C61.0529 61.1603 61.0828 61.1272 61.1144 61.0868C61.1789 61.0045 61.2512 60.8916 61.3056 60.7467C61.3325 60.675 61.3533 60.6 61.3672 60.5226C61.381 60.4453 61.3872 60.3697 61.3872 60.2969H58.8872C58.8872 60.2281 58.893 60.1562 58.9062 60.0824C58.9195 60.0084 58.9393 59.9367 58.9651 59.8681C59.0172 59.7294 59.0862 59.6219 59.1467 59.5447C59.1763 59.5069 59.2041 59.4762 59.2265 59.4528C59.2488 59.4297 59.2679 59.4117 59.2806 59.4001C59.2929 59.3889 59.3025 59.3806 59.3046 59.3788C59.3057 59.3779 59.3068 59.3769 59.3053 59.3782C59.3045 59.3789 59.3018 59.3812 59.2985 59.384C59.2922 59.3895 59.2795 59.4005 59.2641 59.4147C59.2485 59.4292 59.228 59.4488 59.2049 59.4729C59.1585 59.5214 59.0983 59.5916 59.0404 59.6846C58.9812 59.7797 58.9298 59.8898 58.8944 60.0139C58.8593 60.1374 58.8448 60.2578 58.8448 60.3702H61.3448ZM61.1956 60.9619C61.4466 60.5624 61.5535 60.3599 61.7573 60.0467L59.6619 58.6832C59.4841 58.9564 59.2094 59.4241 59.0787 59.632L61.1956 60.9619ZM61.6688 58.5634C60.996 57.7583 60.4728 56.883 60.0441 56.0359L57.8135 57.1648C58.2963 58.1188 58.918 59.1703 59.7504 60.1665L61.6688 58.5634ZM57.7485 56.1887C57.5794 56.6736 57.3681 57.1433 57.1169 57.5926L59.299 58.8125C59.621 58.2367 59.892 57.6343 60.1091 57.012L57.7485 56.1887ZM57.1036 57.617C57.0606 57.6981 57.009 57.7862 56.9399 57.9037C56.8765 58.0114 56.7956 58.1484 56.722 58.2872L58.9308 59.4583C58.9737 59.3772 59.0254 59.2891 59.0945 59.1716C59.1579 59.0639 59.2387 58.9269 59.3124 58.7881L57.1036 57.617ZM56.9479 57.9835C56.8242 58.1058 56.7175 58.2701 56.7654 58.2024C56.7752 58.1886 56.8732 58.0435 57.0536 57.917C57.1536 57.8469 57.2706 57.7874 57.4025 57.7477C57.5322 57.7086 57.652 57.6961 57.7522 57.6961V60.1961C57.993 60.1961 58.2547 60.1282 58.4888 59.964C58.6796 59.8303 58.7862 59.6747 58.8052 59.6478C58.8717 59.554 58.7862 59.6816 58.7049 59.762L56.9479 57.9835ZM56.7016 58.2688C56.6104 58.4103 56.5111 58.5465 56.4041 58.6769L58.3371 60.2624C58.5044 60.0583 58.6599 59.845 58.8028 59.6233L56.7016 58.2688ZM56.4921 58.5804C56.4504 58.6216 56.4166 58.6601 56.3908 58.6913C56.365 58.7227 56.3439 58.7508 56.3284 58.7722C56.3129 58.7936 56.3001 58.8122 56.292 58.8241C56.2879 58.8302 56.2842 58.8357 56.2817 58.8394C56.2787 58.8439 56.2775 58.8456 56.2762 58.8477C56.2735 58.8516 56.2758 58.8481 56.2804 58.8417C56.2851 58.8351 56.2953 58.8209 56.3101 58.8026C56.3247 58.7844 56.3476 58.7573 56.3784 58.726C56.409 58.6949 56.4527 58.6543 56.5098 58.6119L57.9982 60.6206C58.1282 60.5243 58.2144 60.4238 58.2582 60.3694C58.3034 60.3132 58.3378 60.2618 58.3484 60.2461C58.3684 60.2165 58.3591 60.2303 58.3526 60.2394C58.3436 60.2518 58.3078 60.3009 58.2491 60.3589L56.4921 58.5804ZM56.2137 58.9232C56.1524 59.0152 56.0799 59.0998 55.9974 59.1752L57.6838 61.0208C57.9154 60.8092 58.1204 60.5703 58.2943 60.3093L56.2137 58.9232ZM55.9621 59.2087C55.8384 59.331 55.7317 59.4953 55.7796 59.4277C55.7894 59.4138 55.8874 59.2687 56.0679 59.1422C56.1678 59.0721 56.2848 59.0126 56.4167 58.9729C56.5464 58.9339 56.6662 58.9213 56.7664 58.9213V61.4213C57.0072 61.4213 57.2689 61.3534 57.503 61.1892C57.6938 61.0555 57.8004 60.8999 57.8194 60.873C57.8859 60.7792 57.8004 60.9069 57.7191 60.9872L55.9621 59.2087ZM55.8404 59.3316C55.0233 60.2328 54.0593 60.9861 52.9739 61.5041L54.0506 63.7603C55.4667 63.0845 56.6863 62.1204 57.6924 61.0109L55.8404 59.3316ZM52.9377 61.522L52.7151 61.6372L53.8641 63.8575L54.0867 63.7424L52.9377 61.522ZM52.8205 61.5887C52.4348 61.7449 50.7739 62.4864 49.1848 63.7081C47.6548 64.8844 45.8386 66.7778 45.8386 69.2819H48.3386C48.3386 68.016 49.2997 66.7732 50.7085 65.6901C52.0583 64.6524 53.4979 64.0116 53.7587 63.906L52.8205 61.5887ZM45.8386 69.2819V79.3664H48.3386V69.2819H45.8386ZM47.7223 78.2889L22.7595 63.6072L21.4921 65.7622L46.4549 80.4439L47.7223 78.2889ZM22.7693 65.7563C24.4067 64.7731 28.9787 62.089 32.6712 60.9465L31.9322 58.5583C27.908 59.8034 23.0885 62.6485 21.4823 63.6131L22.7693 65.7563ZM32.6803 60.9437C32.726 60.9292 32.9356 60.8995 33.3886 61.0193C33.8137 61.1317 34.3263 61.3416 34.8906 61.6307C36.0173 62.2078 37.2023 63.0234 38.0592 63.7115L39.6246 61.7623C38.6689 60.9948 37.3417 60.0773 36.0304 59.4056C35.3757 59.0703 34.6879 58.7769 34.0278 58.6024C33.3957 58.4352 32.6353 58.3348 31.9231 58.5611L32.6803 60.9437ZM37.9634 63.6262L38.08 63.7413L39.837 61.9629L39.7204 61.8477L37.9634 63.6262ZM38.0777 63.7391C38.3576 64.017 38.6589 64.2727 38.9789 64.504L40.4433 62.4778C40.2286 62.3226 40.0266 62.1512 39.8393 61.9651L38.0777 63.7391ZM38.8326 64.3802L38.9068 64.4534L40.6638 62.6749L40.5896 62.6016L38.8326 64.3802ZM39.0124 64.5466C39.5932 65.0035 40.2836 65.5239 41.0867 65.9206L42.1939 63.6792C41.6401 63.4056 41.1221 63.0254 40.5581 62.5818L39.0124 64.5466ZM41.0971 65.9257L41.5529 66.1456L42.6392 63.894L42.1834 63.6741L41.0971 65.9257ZM41.9676 66.2632C41.8117 66.2471 41.6604 66.199 41.5231 66.1216L42.7521 63.9445C42.5894 63.8526 42.4097 63.7956 42.2246 63.7764L41.9676 66.2632ZM41.5231 66.1216C41.3857 66.044 41.2651 65.9384 41.1696 65.8107L43.171 64.3126C43.058 64.1616 42.9151 64.0365 42.7521 63.9445L41.5231 66.1216ZM41.5832 66.1653C42.0416 66.4091 42.4934 66.6145 42.9752 66.8137L43.9306 64.5035C43.5008 64.3257 43.1258 64.1541 42.7573 63.9581L41.5832 66.1653ZM42.922 66.7903C43.038 66.8447 43.1576 66.8906 43.2801 66.9279L44.0072 64.5359C43.9991 64.5335 43.9912 64.5304 43.9837 64.5269L42.922 66.7903ZM43.6437 66.9819C43.4432 66.9819 43.292 66.9309 43.2214 66.9035C43.1874 66.8903 43.1628 66.8787 43.1593 66.877C43.1573 66.8761 43.1555 66.8752 43.16 66.8774C43.1628 66.8787 43.1703 66.8823 43.1789 66.8863C43.2148 66.903 43.2979 66.9406 43.4077 66.9713C43.5224 67.0033 43.6513 67.0238 43.7921 67.0238V64.5238C43.8957 64.5238 43.9928 64.5391 44.0794 64.5632C44.161 64.586 44.2196 64.6132 44.2329 64.6194C44.236 64.6208 44.2379 64.6217 44.2354 64.6205C44.2344 64.62 44.2273 64.6166 44.2201 64.6133C44.2061 64.6067 44.1713 64.5905 44.1272 64.5734C44.0364 64.5381 43.8654 64.4819 43.6437 64.4819V66.9819ZM43.3896 66.9572C44.0669 67.1876 44.7389 67.387 45.4262 67.5539L46.0163 65.1246C45.4104 64.9774 44.8104 64.7998 44.1946 64.5904L43.3896 66.9572ZM46.8288 66.9187C47.2272 66.1574 47.8392 65.4417 48.5388 64.7986L46.8469 62.9581C46.0201 63.7182 45.1906 64.6572 44.6137 65.7598L46.8288 66.9187ZM47.7765 62.6312C46.8347 62.568 45.9076 62.3679 45.0254 62.0375L44.1487 64.3788C45.259 64.7945 46.425 65.0461 47.6092 65.1255L47.7765 62.6312ZM45.4656 62.3189C45.3255 62.1806 45.1829 62.1001 45.0874 62.0546C45.0388 62.0315 44.9965 62.0147 44.966 62.0034C44.9362 61.9923 44.911 61.9839 44.8999 61.9803C44.8812 61.9741 44.8906 61.9773 44.8925 61.9779C44.8986 61.98 44.922 61.988 44.9529 62.001C44.9838 62.014 45.0348 62.037 45.0948 62.073C45.1555 62.1093 45.2352 62.1647 45.3172 62.2456L43.5602 64.0241C43.6501 64.1129 43.7391 64.1751 43.81 64.2176C43.8804 64.2598 43.9427 64.2883 43.9857 64.3063C44.0287 64.3244 44.0649 64.337 44.0843 64.3437C44.0946 64.3472 44.1035 64.3501 44.1086 64.3518C44.1184 64.355 44.113 64.3532 44.1179 64.3548C44.1207 64.3558 44.1096 64.3522 44.0937 64.3463C44.0772 64.3401 44.0487 64.329 44.0135 64.3122C43.9448 64.2796 43.8274 64.2148 43.7086 64.0974L45.4656 62.3189ZM44.7974 61.9374C44.7722 61.9299 44.7483 61.9195 44.7261 61.9066L43.4729 64.0698C43.6643 64.1808 43.8681 64.2688 44.0799 64.3323L44.7974 61.9374ZM44.978 62.099C44.8379 61.9606 44.6953 61.8801 44.5998 61.8347C44.5512 61.8116 44.5089 61.7948 44.4784 61.7835C44.4485 61.7723 44.4233 61.764 44.4122 61.7604C44.3935 61.7542 44.4029 61.7573 44.4049 61.758C44.411 61.7601 44.4343 61.7681 44.4652 61.7811C44.4961 61.794 44.5471 61.8171 44.6072 61.8531C44.6679 61.8894 44.7476 61.9447 44.8296 62.0257L43.0726 63.8042C43.1625 63.893 43.2515 63.9552 43.3224 63.9977C43.3929 64.0399 43.4552 64.0684 43.4982 64.0864C43.5412 64.1045 43.5773 64.1172 43.5968 64.1238C43.6071 64.1273 43.6159 64.1302 43.6211 64.1319C43.6309 64.1351 43.6254 64.1333 43.6304 64.135C43.6332 64.1359 43.6221 64.1323 43.6062 64.1264C43.5896 64.1202 43.5611 64.1091 43.526 64.0923C43.4573 64.0597 43.3398 63.9949 43.221 63.8775L44.978 62.099ZM44.3737 61.7385C44.4092 61.7513 44.4246 61.7618 44.3725 61.7341C44.3571 61.726 44.3136 61.7025 44.274 61.6825C44.2327 61.6617 44.1627 61.6276 44.0779 61.5962L43.2094 63.9405C43.167 63.9248 43.142 63.9116 43.1482 63.9147C43.1559 63.9186 43.1621 63.922 43.1984 63.9413C43.2497 63.9686 43.3763 64.0367 43.5284 64.0913L44.3737 61.7385ZM44.2035 61.6507C43.5001 61.2984 42.8996 60.9381 42.3606 60.4943L40.7716 62.4244C41.5045 63.0278 42.282 63.4843 43.0838 63.8859L44.2035 61.6507ZM42.4092 60.5365L41.4234 59.6359L39.7372 61.4816L40.723 62.3822L42.4092 60.5365ZM41.3998 59.6149C40.4276 58.7707 39.3745 58.0222 38.2557 57.3802L37.0113 59.5485C37.9901 60.1102 38.9109 60.7647 39.7607 61.5026L41.3998 59.6149ZM38.246 57.3747C35.6814 55.9332 33.2195 55.2852 31.1371 55.9298L31.8764 58.318C32.974 57.9783 34.6672 58.2309 37.021 59.554L38.246 57.3747ZM31.1272 55.9329C27.7096 57.0221 23.8632 59.0563 21.5752 60.3767L22.8247 62.542C25.0735 61.2443 28.7319 59.3202 31.8863 58.3149L31.1272 55.9329ZM23.289 62.0729L48.2095 17.8393L46.0314 16.6122L21.1109 60.8458L23.289 62.0729ZM45.8704 17.2257V36.6198H48.3704V17.2257H45.8704ZM45.8704 36.6198C45.8704 36.5106 45.8981 36.5436 45.7993 36.7332C45.7118 36.9009 45.5495 37.1428 45.2731 37.4348C44.7219 38.0174 43.7511 38.7625 42.1479 39.4789L43.1678 41.7613C45.0097 40.9383 46.2702 40.0184 47.0889 39.1532C47.4976 38.7214 47.805 38.2937 48.016 37.8891C48.2156 37.5063 48.3704 37.0641 48.3704 36.6198H45.8704ZM42.0834 39.51L41.8608 39.6251L43.0098 41.8455L43.2324 41.7303L42.0834 39.51ZM41.9393 39.5879C41.5244 39.7672 41.1202 40.0118 40.8423 40.1663L42.0567 42.3515C42.4571 42.129 42.6678 41.9966 42.9312 41.8827L41.9393 39.5879ZM40.835 40.1703L40.7608 40.2122L41.9897 42.3893L42.0639 42.3475L40.835 40.1703ZM40.7366 40.2263C40.0285 40.6472 39.3548 41.1225 38.7218 41.648L40.3187 43.5715C40.851 43.1296 41.4179 42.7296 42.014 42.3753L40.7366 40.2263ZM38.7373 41.6354C38.314 41.9755 37.9213 42.3514 37.5635 42.7588L39.4419 44.4085C39.7042 44.1098 39.9924 43.834 40.3033 43.5841L38.7373 41.6354ZM37.6242 42.6944L37.5818 42.7363L39.3388 44.5148L39.3812 44.4729L37.6242 42.6944ZM37.5951 42.7234C37.2059 43.0966 36.8513 43.5039 36.5358 43.9403L38.5616 45.4052C38.7889 45.0909 39.0446 44.7972 39.3255 44.5277L37.5951 42.7234ZM36.6702 43.7835L36.6278 43.8254L38.3848 45.6039L38.4272 45.562L36.6702 43.7835ZM36.5241 43.9414C36.4257 44.0665 36.3406 44.1881 36.277 44.2785C36.2081 44.3766 36.1607 44.4435 36.1107 44.5069L38.075 46.0534C38.1735 45.9283 38.2586 45.8067 38.3222 45.7162C38.3911 45.6182 38.4385 45.5513 38.4884 45.4879L36.5241 43.9414ZM35.8429 45.2801C35.8429 45.1782 35.856 45.0669 35.8889 44.9516C35.9219 44.8356 35.97 44.7327 36.0253 44.644C36.0792 44.5573 36.1347 44.4927 36.1761 44.4495C36.1967 44.428 36.2147 44.4108 36.2277 44.3988C36.2405 44.387 36.2505 44.3783 36.2542 44.3751C36.2561 44.3734 36.2575 44.3723 36.257 44.3727C36.2568 44.3728 36.2569 44.3728 36.2565 44.3731C36.2563 44.3733 36.256 44.3735 36.2556 44.3739C36.2549 44.3745 36.2537 44.3755 36.2524 44.3766C36.2476 44.3807 36.2355 44.3912 36.2207 44.4048C36.2055 44.4186 36.184 44.4389 36.1594 44.4644C36.1347 44.4901 36.1049 44.5232 36.0732 44.5636C36.0088 44.6459 35.9364 44.7588 35.8821 44.9037C35.8551 44.9754 35.8344 45.0504 35.8205 45.1278C35.8067 45.2051 35.8005 45.2807 35.8005 45.3534H38.3005C38.3005 45.4223 38.2946 45.4942 38.2814 45.568C38.2682 45.642 38.2483 45.7137 38.2226 45.7823C38.1705 45.921 38.1015 46.0285 38.041 46.1056C38.0114 46.1435 37.9837 46.1742 37.9612 46.1975C37.9389 46.2207 37.9198 46.2386 37.9072 46.2502C37.8948 46.2615 37.8852 46.2697 37.8831 46.2716C37.8821 46.2725 37.881 46.2734 37.8824 46.2721C37.8832 46.2715 37.886 46.2691 37.8892 46.2663C37.8956 46.2608 37.9082 46.2498 37.9236 46.2356C37.9392 46.2212 37.9598 46.2015 37.9828 46.1774C38.0292 46.129 38.0893 46.0587 38.1473 45.9657C38.2065 45.8706 38.2579 45.7606 38.2933 45.6364C38.3284 45.513 38.3429 45.3925 38.3429 45.2801H35.8429ZM35.9874 44.6959C35.9413 44.7705 35.8964 44.8382 35.8397 44.9236C35.7851 45.0058 35.7187 45.1056 35.6482 45.2195L37.7744 46.5346C37.8205 46.46 37.8654 46.3922 37.9221 46.3069C37.9767 46.2247 38.0431 46.1249 38.1136 46.011L35.9874 44.6959ZM35.4613 45.877C35.4613 45.7751 35.4744 45.6638 35.5073 45.5485C35.5403 45.4325 35.5884 45.3296 35.6437 45.2409C35.6976 45.1542 35.7531 45.0897 35.7945 45.0464C35.8151 45.0249 35.8331 45.0077 35.8461 44.9957C35.8589 44.9839 35.8689 44.9752 35.8726 44.972C35.8745 44.9703 35.8759 44.9692 35.8754 44.9696C35.8752 44.9698 35.8753 44.9697 35.8749 44.97C35.8747 44.9702 35.8744 44.9705 35.874 44.9708C35.8733 44.9714 35.8721 44.9724 35.8708 44.9735C35.866 44.9776 35.8539 44.9881 35.8391 45.0017C35.8239 45.0155 35.8024 45.0358 35.7779 45.0613C35.7531 45.087 35.7233 45.1201 35.6916 45.1605C35.6272 45.2428 35.5548 45.3557 35.5005 45.5006C35.4735 45.5723 35.4528 45.6473 35.4389 45.7247C35.4251 45.802 35.4189 45.8776 35.4189 45.9503H37.9189C37.9189 46.0192 37.913 46.0911 37.8998 46.1649C37.8866 46.2389 37.8667 46.3106 37.841 46.3792C37.7889 46.5179 37.7199 46.6254 37.6594 46.7025C37.6298 46.7404 37.6021 46.7711 37.5796 46.7944C37.5573 46.8176 37.5382 46.8355 37.5256 46.8471C37.5132 46.8584 37.5036 46.8666 37.5015 46.8685C37.5005 46.8694 37.4994 46.8703 37.5008 46.869C37.5016 46.8684 37.5044 46.866 37.5076 46.8633C37.514 46.8577 37.5266 46.8467 37.542 46.8325C37.5576 46.8181 37.5782 46.7985 37.6012 46.7743C37.6476 46.7259 37.7078 46.6556 37.7657 46.5626C37.8249 46.4676 37.8763 46.3575 37.9117 46.2334C37.9468 46.1099 37.9613 45.9895 37.9613 45.877H35.4613ZM35.597 45.3074L35.2578 45.8728L37.4016 47.1588L37.7408 46.5933L35.597 45.3074ZM35.4512 45.6266C35.3825 45.6944 35.3155 45.7738 35.2553 45.867C35.196 45.9585 35.1582 46.0405 35.1348 46.0964C35.1238 46.1228 35.1154 46.1451 35.1107 46.1577C35.1083 46.1643 35.1061 46.1702 35.1048 46.1737C35.1032 46.1782 35.1026 46.1796 35.1019 46.1816C35.1002 46.1862 35.1034 46.1774 35.1088 46.165L37.4022 47.1599C37.4235 47.1108 37.4386 47.0706 37.4472 47.0474C37.449 47.0424 37.451 47.0371 37.4517 47.0351C37.4528 47.0321 37.453 47.0317 37.4528 47.032C37.4527 47.0323 37.4488 47.043 37.4424 47.0582C37.4284 47.0919 37.4004 47.1536 37.3541 47.2252C37.3068 47.2984 37.2557 47.3582 37.2082 47.4051L35.4512 45.6266ZM35.1924 46.0049C35.0443 46.2444 34.8761 46.6198 34.8752 46.6216L37.1058 47.7505C37.1341 47.6946 37.1598 47.6398 37.1799 47.5968C37.2023 47.5485 37.2175 47.5156 37.2356 47.4775C37.2696 47.4061 37.2949 47.3583 37.3186 47.32L35.1924 46.0049ZM34.7475 47.0544C34.7644 46.894 34.815 46.7397 34.8951 46.6012L37.0591 47.853C37.1538 47.6892 37.2135 47.5069 37.2336 47.3177L34.7475 47.0544ZM34.8951 46.6012C34.9751 46.4629 35.0828 46.3434 35.2107 46.25L36.6855 48.2687C36.837 48.158 36.9645 48.0166 37.0591 47.853L34.8951 46.6012ZM34.785 46.8015C34.7588 46.868 34.7319 46.929 34.6939 47.015C34.6577 47.0966 34.6104 47.2031 34.5624 47.3251L36.8886 48.2408C36.9148 48.1743 36.9417 48.1132 36.9797 48.0273C37.0159 47.9457 37.0632 47.8392 37.1112 47.7172L34.785 46.8015ZM34.5988 47.2415C34.5432 47.3573 34.4961 47.477 34.4579 47.5997L36.8447 48.3432C36.8467 48.3369 36.8492 48.3306 36.8522 48.3243L34.5988 47.2415ZM34.4882 47.5136L34.2656 48.0791L36.5918 48.9948L36.8144 48.4293L34.4882 47.5136ZM34.302 47.9955C34.2464 48.1113 34.1993 48.2309 34.1611 48.3537L36.5479 49.0972C36.5499 49.0908 36.5524 49.0845 36.5554 49.0783L34.302 47.9955ZM34.1419 48.4218C34.1276 48.479 34.1074 48.5348 34.0814 48.5884L36.3308 49.6793C36.4317 49.4712 36.5109 49.2534 36.5671 49.029L34.1419 48.4218ZM34.1241 48.508C34.0121 48.7016 33.968 48.8787 33.9532 48.9371C33.9416 48.983 33.9468 48.9632 33.9473 48.9615C33.9514 48.9471 33.963 48.9073 33.9852 48.8563L36.2787 49.8512C36.3167 49.7635 36.3403 49.6871 36.3546 49.636C36.3617 49.6107 36.3672 49.5889 36.3706 49.5753C36.3723 49.5687 36.374 49.562 36.3749 49.5584C36.376 49.5539 36.3765 49.5519 36.3768 49.5504C36.3806 49.5355 36.3578 49.6393 36.2881 49.7597L34.1241 48.508ZM33.9124 49.0794C33.904 49.1168 33.8899 49.1646 33.8607 49.2583C33.8392 49.327 33.7924 49.472 33.7619 49.6124L36.2051 50.1423C36.2041 50.1469 36.2056 50.1394 36.2136 50.1119C36.2219 50.0838 36.2315 50.053 36.2468 50.0042C36.2732 49.9198 36.3174 49.7792 36.3514 49.6281L33.9124 49.0794ZM33.9015 49.2515C33.8227 49.3877 33.7807 49.5123 33.758 49.5904C33.7353 49.6688 33.7217 49.7378 33.716 49.7668C33.7067 49.8138 33.7094 49.8006 33.7104 49.7966C33.7123 49.7881 33.7265 49.7247 33.7626 49.6417L36.0561 50.6366C36.0833 50.5737 36.1026 50.5172 36.1161 50.4726C36.1297 50.4278 36.1395 50.3884 36.1464 50.3586C36.1532 50.329 36.1585 50.303 36.1618 50.286C36.1635 50.2773 36.1651 50.2691 36.1662 50.2634C36.1675 50.2569 36.1682 50.2532 36.1689 50.2496C36.1703 50.2425 36.1701 50.2439 36.1689 50.249C36.1677 50.2543 36.1645 50.2681 36.1589 50.2873C36.1534 50.3065 36.1442 50.3354 36.1302 50.3705C36.1161 50.4057 36.0954 50.4515 36.0655 50.5032L33.9015 49.2515ZM33.7362 49.7074C33.6969 49.8142 33.6738 49.9105 33.6594 49.9812C33.6451 50.0513 33.6359 50.1146 33.6306 50.1522C33.6236 50.2018 33.6227 50.2096 33.6202 50.2252C33.6185 50.2356 33.621 50.2166 33.6302 50.1835L36.04 50.8488C36.0651 50.758 36.0795 50.6775 36.0881 50.6244C36.0959 50.5765 36.1036 50.5189 36.1059 50.503C36.1098 50.4752 36.1105 50.473 36.1092 50.4797C36.1077 50.4869 36.1005 50.5216 36.0824 50.5709L33.7362 49.7074ZM33.662 50.0843C33.5989 50.2559 33.5733 50.4058 33.5615 50.4757C33.5459 50.568 33.5502 50.5394 33.556 50.5186L35.9658 51.1839C35.9866 51.1086 36.0001 51.0425 36.0092 50.9934C36.0137 50.969 36.0174 50.947 36.0202 50.9305C36.0238 50.9085 36.0243 50.9056 36.0266 50.8916C36.0334 50.8516 36.0289 50.8915 36.0082 50.9479L33.662 50.0843ZM33.5601 50.5039C33.5086 50.682 33.4888 50.8454 33.4791 50.9248C33.4727 50.9771 33.4708 50.9948 33.4672 51.021C33.4644 51.0413 33.4636 51.0436 33.4651 51.0365L35.9083 51.5665C35.9257 51.4861 35.9368 51.4138 35.9443 51.3589C35.951 51.3098 35.9577 51.2515 35.9606 51.2279C35.9695 51.1555 35.9708 51.167 35.9617 51.1985L33.5601 50.5039ZM33.4367 51.3015C33.4367 51.2039 33.4577 51.1268 33.446 51.179C33.4365 51.2211 33.3943 51.3924 33.3943 51.6052H35.8943C35.8943 51.7028 35.8733 51.7799 35.885 51.7277C35.8945 51.6857 35.9367 51.5143 35.9367 51.3015H33.4367ZM33.3943 51.6052C33.3943 51.5639 33.4013 51.5348 33.3892 51.6096C33.3801 51.6657 33.3519 51.8256 33.3519 52.0136H35.8519C35.8519 52.055 35.8449 52.084 35.857 52.0092C35.8661 51.9531 35.8943 51.7932 35.8943 51.6052H33.3943ZM33.3535 52.0765C33.354 52.0857 33.353 52.095 33.3506 52.1041L35.7684 52.7399C35.8361 52.4826 35.8637 52.2165 35.8503 51.9507L33.3535 52.0765ZM33.3095 52.422V52.9875H35.8095V52.422H33.3095ZM33.3095 52.9792C33.3046 53.7224 33.3591 54.4647 33.4725 55.1993L35.9433 54.8179C35.8502 54.2149 35.8054 53.6057 35.8095 52.9958L33.3095 52.9792ZM34.4357 56.2286C35.2823 56.4175 36.1986 56.7877 37.2774 57.3001L38.35 55.0419C37.224 54.5071 36.1051 54.0396 34.9801 53.7886L34.4357 56.2286ZM39.0057 55.7947C38.7385 54.9483 38.6044 54.0593 38.5755 53.1066L36.0767 53.1825C36.1113 54.3243 36.274 55.4459 36.6217 56.5472L39.0057 55.7947ZM38.5761 53.1446V52.9561H36.0761V53.1446H38.5761ZM38.5756 52.9208C38.5706 52.7432 38.5807 52.5656 38.6059 52.3897L36.1311 52.0355C36.0858 52.352 36.0676 52.6718 36.0766 52.9914L38.5756 52.9208ZM38.6185 52.2126V52.0241H36.1185V52.2126H38.6185ZM38.6185 52.0241C38.6185 51.9186 38.6322 51.9095 38.681 51.5562L36.2044 51.2144C36.1896 51.3218 36.1185 51.6898 36.1185 52.0241H38.6185ZM38.6927 51.3853V51.312H36.1927V51.3853H38.6927ZM38.6701 51.5486C38.717 51.3053 38.7573 51.0214 38.7932 50.7997L36.3254 50.4001C36.2765 50.702 36.2532 50.8788 36.2153 51.0753L38.6701 51.5486ZM38.8093 50.5999C38.8093 50.8122 38.7395 50.9756 38.7535 50.9375C38.7607 50.918 38.8517 50.6971 38.8517 50.4114H36.3517C36.3517 50.199 36.4215 50.0357 36.4074 50.0738C36.4003 50.0933 36.3093 50.3142 36.3093 50.5999H38.8093ZM38.8212 50.6857C38.8309 50.6427 38.8439 50.6007 38.8787 50.4826C38.907 50.3866 38.9531 50.2291 38.9827 50.0539L36.5175 49.638C36.5153 49.6513 36.5083 49.6822 36.481 49.7747C36.4602 49.8451 36.4149 49.9916 36.3822 50.1371L38.8212 50.6857ZM39.0001 49.8459C39.0001 50.051 38.9473 50.2093 38.9097 50.299C38.8911 50.3433 38.8738 50.3767 38.8646 50.3938C38.8563 50.4093 38.849 50.4217 38.8533 50.4141C38.8543 50.4125 38.8669 50.391 38.8801 50.3663C38.8943 50.3398 38.9163 50.2972 38.9388 50.2434C38.9844 50.1347 39.0425 49.9567 39.0425 49.7307H36.5425C36.5425 49.5257 36.5953 49.3673 36.6329 49.2776C36.6515 49.2333 36.6688 49.2 36.678 49.1828C36.6863 49.1673 36.6936 49.155 36.6892 49.1625C36.6883 49.1641 36.6757 49.1856 36.6624 49.2104C36.6482 49.2368 36.6263 49.2795 36.6038 49.3332C36.5582 49.4419 36.5001 49.6199 36.5001 49.8459H39.0001ZM38.9788 50.1247L39.2014 49.4545L36.8288 48.6665L36.6062 49.3367L38.9788 50.1247ZM38.8936 49.9498C39.034 49.811 39.1166 49.6687 39.1638 49.572C39.1876 49.523 39.205 49.4803 39.2167 49.4495C39.2282 49.4194 39.2368 49.3939 39.2406 49.3829C39.2416 49.3799 39.2425 49.3771 39.2431 49.3753C39.2438 49.3732 39.2441 49.3724 39.2444 49.3716C39.2449 49.3699 39.2442 49.3722 39.2428 49.376C39.2406 49.3824 39.2322 49.4063 39.2187 49.4378C39.2051 49.4693 39.1812 49.5209 39.144 49.5814C39.1065 49.6426 39.0499 49.722 38.9678 49.8031L37.2108 48.0247C37.1208 48.1136 37.0572 48.2022 37.0134 48.2736C36.97 48.3443 36.9405 48.4071 36.9218 48.4506C36.9032 48.494 36.89 48.5306 36.8832 48.5501C36.8796 48.5605 36.8766 48.5694 36.8748 48.5745C36.8715 48.5844 36.8734 48.5788 36.8718 48.5837C36.8709 48.5864 36.8747 48.5749 36.8809 48.5585C36.8874 48.5415 36.899 48.5125 36.9164 48.4767C36.9507 48.4065 37.0173 48.2891 37.1366 48.1713L38.8936 49.9498ZM39.2524 49.3718C39.3335 49.1659 39.385 49.0381 39.4272 48.9548L37.1966 47.8258C37.0904 48.0357 36.9935 48.285 36.9262 48.4561L39.2524 49.3718ZM39.1904 49.2795C39.2591 49.2117 39.326 49.1323 39.3863 49.0392C39.4456 48.9476 39.4834 48.8656 39.5068 48.8097C39.5177 48.7833 39.5262 48.761 39.5309 48.7484C39.5333 48.7419 39.5355 48.736 39.5368 48.7324C39.5384 48.728 39.539 48.7265 39.5397 48.7245C39.5414 48.7199 39.5382 48.7288 39.5328 48.7412L37.2393 47.7462C37.2181 47.7953 37.203 47.8356 37.1944 47.8587C37.1926 47.8637 37.1906 47.869 37.1899 47.8711C37.1888 47.8741 37.1886 47.8745 37.1887 47.8741C37.1889 47.8738 37.1928 47.8631 37.1992 47.8479C37.2132 47.8142 37.2411 47.7525 37.2875 47.6809C37.3348 47.6077 37.3859 47.548 37.4334 47.5011L39.1904 49.2795ZM39.4905 48.8292C39.5279 48.7587 39.5607 48.6928 39.5863 48.6415C39.614 48.5859 39.632 48.5498 39.6499 48.5157C39.6823 48.4541 39.6978 48.4323 39.7074 48.42L37.7431 46.8736C37.5021 47.1798 37.3233 47.5796 37.2817 47.6582L39.4905 48.8292ZM39.7053 48.4227C39.7842 48.3231 39.8532 48.216 39.9113 48.1029L37.6877 46.9603C37.704 46.9286 37.7233 46.8986 37.7452 46.8709L39.7053 48.4227ZM39.8625 48.1892C39.9343 48.0731 39.9924 47.9709 40.0395 47.8883C40.0878 47.8033 40.1251 47.738 40.1699 47.6656L38.0438 46.3504C37.972 46.4665 37.9139 46.5687 37.8669 46.6513C37.8185 46.7363 37.7812 46.8016 37.7364 46.874L39.8625 48.1892ZM40.0869 47.7839C40.1657 47.6844 40.2347 47.5773 40.2929 47.4641L38.0693 46.3216C38.0856 46.2897 38.1049 46.2598 38.1268 46.2321L40.0869 47.7839ZM40.2292 47.5739C40.3315 47.4166 40.4424 47.2648 40.5616 47.1193L38.6274 45.5353C38.4503 45.7516 38.2852 45.9774 38.1329 46.2117L40.2292 47.5739ZM40.8441 46.2945C40.8484 46.4608 40.8184 46.6258 40.7564 46.7793L38.4384 45.843C38.3722 46.0068 38.3402 46.1828 38.3449 46.3602L40.8441 46.2945ZM40.7564 46.7793C40.6944 46.9329 40.6018 47.0713 40.4851 47.1866L38.7281 45.4082C38.6035 45.5313 38.5046 45.6791 38.4384 45.843L40.7564 46.7793ZM40.4851 47.1866C40.3683 47.302 40.23 47.3917 40.079 47.4512L39.162 45.1255C39.0006 45.1891 38.8528 45.285 38.7281 45.4082L40.4851 47.1866ZM40.079 47.4512C39.9279 47.5108 39.7666 47.5392 39.6048 47.535L39.669 45.0359C39.496 45.0314 39.3235 45.0618 39.162 45.1255L40.079 47.4512ZM40.619 47.0587C40.6923 46.9656 40.7577 46.8829 40.8241 46.799C40.8902 46.7153 40.9573 46.6305 41.0324 46.5351L39.0681 44.9886C38.9949 45.0817 38.9294 45.1644 38.8631 45.2483C38.7969 45.332 38.7299 45.4168 38.6547 45.5122L40.619 47.0587ZM41.0303 46.5377C41.1092 46.4382 41.1782 46.3311 41.2363 46.2179L39.0127 45.0754C39.029 45.0436 39.0483 45.0137 39.0702 44.986L41.0303 46.5377ZM41.046 46.4912C41.6558 45.8258 42.3501 45.2405 43.1121 44.7498L41.7585 42.6479C40.8169 43.2543 39.9579 43.9782 39.2029 44.8021L41.046 46.4912ZM42.9767 44.8255L44.1533 44.26L43.0704 42.0067L41.8938 42.5722L42.9767 44.8255ZM44.081 44.292C44.4809 44.1301 46.1338 43.3671 47.7116 42.1263C49.2337 40.9293 51.031 39.0156 51.031 36.5151H48.531C48.531 37.795 47.5671 39.0595 46.1662 40.1611C44.8211 41.219 43.3894 41.8749 43.1427 41.9747L44.081 44.292ZM51.031 36.5151V17.1943H48.531V36.5151H51.031ZM48.6922 17.8082L73.8459 62.4188L76.0236 61.191L50.8699 16.5804L48.6922 17.8082ZM75.4777 60.679C73.2468 59.6031 69.2921 57.6601 66.2407 56.0954L65.1 58.32C68.1754 59.8969 72.1495 61.8495 74.3917 62.9308L75.4777 60.679ZM66.2345 56.0922C65.7111 55.8276 65.1267 55.1138 64.5915 54.103C64.085 53.1464 63.7374 52.1462 63.5843 51.6216L61.1844 52.3219C61.3705 52.9597 61.7755 54.1271 62.382 55.2728C62.9599 56.3642 63.8488 57.6873 65.1062 58.3232L66.2345 56.0922ZM63.5962 51.6651L63.257 50.3247L60.8334 50.938L61.1726 52.2784L63.5962 51.6651ZM63.2952 50.6313C63.2952 49.7135 63.0508 48.8448 62.8233 48.1275L60.4403 48.8835C60.6579 49.5695 60.7952 50.125 60.7952 50.6313H63.2952ZM62.8079 48.0822C61.9361 45.6602 60.4508 43.5012 58.4955 41.8108L56.8605 43.702C58.4929 45.1133 59.7301 46.9132 60.4556 48.9288L62.8079 48.0822Z" fill="white" mask="url(#path-2-inside-1)"/>
</svg>
