<svg width="96" height="96" viewBox="0 0 96 96" fill="none" xmlns="http://www.w3.org/2000/svg">
<path d="M48 95C73.9574 95 95 73.9574 95 48C95 22.0426 73.9574 1 48 1C22.0426 1 1 22.0426 1 48C1 73.9574 22.0426 95 48 95Z" fill="black"/>
<path d="M25.2572 58.3542L31.3457 52.0546L23.7764 41.8403L14.1388 28.2034C10.734 34.0141 8.78192 40.778 8.78192 47.9991C8.78192 59.9617 14.1388 70.6718 22.5876 77.8649L34.8209 69.2194C30.6599 66.627 27.3078 62.8529 25.2572 58.3542Z" fill="white"/>
<path d="M37.6445 25.258L43.9441 31.3465L54.1585 23.7771L67.7953 14.1395C61.9846 10.7347 55.2207 8.78265 47.9996 8.78265C36.0371 8.78265 25.3267 14.1396 18.1337 22.5883L26.7794 34.8216C29.3716 30.6606 33.1458 27.3085 37.6445 25.258Z" fill="white"/>
<path d="M64.6551 43.9449L72.2248 54.1592L81.8619 67.796C85.2666 61.9853 87.2192 55.2215 87.2192 48.0003C87.2192 36.0378 81.8619 25.3275 73.4136 18.1345L61.18 26.7801C65.341 29.3724 68.693 33.1465 70.7436 37.6453L64.6551 43.9449Z" fill="white"/>
<path d="M77.8656 73.4122L69.2201 61.1786C66.6278 65.3396 62.8537 68.6917 58.3549 70.7422L52.0553 64.6537L41.8409 72.2234L28.2042 81.8604C34.0148 85.2652 40.7787 87.2177 47.9999 87.2177C59.9624 87.2177 70.6725 81.8604 77.8656 73.4122Z" fill="white"/>
</svg>
