<svg width="96" height="96" viewBox="0 0 96 96" fill="none" xmlns="http://www.w3.org/2000/svg">
<circle cx="48" cy="48" r="47" fill="#FF5000"/>
<path fill-rule="evenodd" clip-rule="evenodd" d="M45.5765 31.2796L27.9186 60.3348L34.9422 56.2797C34.9586 56.2509 34.9756 56.2223 34.9931 56.1938L45.5765 38.9626V31.2796ZM65.3911 64.3407H31.2614L37.6216 60.6687H58.7925C58.8683 60.6687 58.9431 60.6659 59.0168 60.6605L65.3911 64.3407ZM68.1717 60.0102L50.7172 31.2897V38.9708L61.1494 55.9559L68.1717 60.0102ZM50.6541 21.2876C49.51 19.4051 46.7776 19.4051 45.6335 21.2876L19.0568 65.0182C17.8671 66.9758 19.2763 69.4813 21.5671 69.4813H74.7205C77.0113 69.4813 78.4205 66.9758 77.2308 65.0182L50.6541 21.2876ZM48.1443 44.6042L41.4349 55.528H54.8538L48.1443 44.6042Z" fill="white"/>
</svg>
