<svg width="24" height="24" viewBox="0 0 24 24" fill="none" xmlns="http://www.w3.org/2000/svg">
<path d="M16.3423 3.76383L14.0869 20.98H19.3577L21.5956 3.89742C21.6359 3.58953 21.3963 3.31641 21.0857 3.31641H16.8522C16.594 3.31641 16.3758 3.50784 16.3423 3.76383Z" fill="#D3DDDC"/>
<path d="M13.4698 20.9801H8.19904L9.84477 8.41764C9.87831 8.16165 10.0965 7.97021 10.3546 7.97021H14.5882C14.8987 7.97021 15.1384 8.24334 15.0981 8.55123L13.4698 20.9801Z" fill="#CBDCDA"/>
<path d="M7.58196 20.9799H2.31116L3.33754 13.1483C3.37108 12.8924 3.58923 12.7009 3.8474 12.7009H8.08096C8.39149 12.7009 8.63117 12.9741 8.59082 13.282L7.58196 20.9799Z" fill="#C2DBD8"/>
</svg>
