<svg width="24" height="24" viewBox="0 0 82 96" fill="none" xmlns="http://www.w3.org/2000/svg">
<path fill-rule="evenodd" clip-rule="evenodd" d="M9.61 73.1045C7.37 71.7345 6 69.2945 6 66.6745V52.0445C6 51.4845 6.15 50.9445 6.43 50.4645C7.3 48.9645 9.23 48.4545 10.73 49.3345L43.75 68.5845C45.68 69.7145 46.87 71.7745 46.87 74.0145V89.1745C46.87 89.8645 46.68 90.5545 46.32 91.1445C45.23 92.9245 42.91 93.4845 41.13 92.3945L9.61 73.1045ZM58.83 45.3245C60.76 46.4545 61.95 48.5145 61.95 50.7545V81.5145C61.95 82.4245 61.46 83.2645 60.67 83.7045L53.44 87.7745C53.35 87.8245 53.25 87.8645 53.15 87.8945V70.8145C53.15 68.6045 51.99 66.5545 50.09 65.4145L21.09 48.0645V28.7845C21.09 28.2245 21.24 27.6845 21.52 27.2045C22.39 25.7045 24.32 25.1945 25.82 26.0745L58.83 45.3245ZM73.28 22.6045C75.22 23.7245 76.41 25.8045 76.41 28.0445V72.9745C76.41 73.8945 75.9 74.7445 75.09 75.1845L68.24 78.8845V47.6045C68.24 45.3945 67.08 43.3545 65.19 42.2145L35.55 24.4345V6.14447C35.55 5.58447 35.7 5.04447 35.97 4.56447C36.84 3.06447 38.77 2.55447 40.27 3.42447L73.28 22.6045Z" fill="#00D395"/>
</svg>
