<svg width="24" height="24" viewBox="0 0 24 24" fill="none" xmlns="http://www.w3.org/2000/svg">
<path d="M7.79713 13.4401L11.7527 11.0184V2.26802C10.3387 2.30327 8.99956 2.64001 7.79713 3.2164L7.79713 13.4401ZM6.94951 13.959V3.67581C4.14085 5.38352 2.26488 8.47268 2.26488 12C2.26488 13.5179 2.61226 14.9546 3.23186 16.235L6.94951 13.959ZM12.6003 17.0007L16.5559 14.5503V3.39464C15.3631 2.7618 14.023 2.36971 12.6003 2.28315L12.6003 17.0007ZM11.7527 17.5258V11.9799L3.6206 16.9586C4.46576 18.3837 5.66415 19.5747 7.09514 20.411L11.7527 17.5258ZM17.4036 14.0252L21.714 11.355C21.6152 9.84466 21.172 8.4283 20.4621 7.18372L17.4036 8.97237V14.0252ZM17.4036 3.90109V8.02113L20.0253 6.48792C19.3237 5.46842 18.4329 4.58924 17.4036 3.90109V3.90109ZM17.4002 2.92335H17.4036V2.92537C20.4917 4.76819 22.5599 8.14256 22.5599 12C22.5599 17.8321 17.8321 22.56 11.9999 22.56C6.16781 22.56 1.43994 17.8321 1.43994 12C1.43994 6.16788 6.16781 1.44 11.9999 1.44C13.9732 1.44 15.8201 1.98123 17.4002 2.92335V2.92335ZM7.94559 20.8532C9.17992 21.4194 10.5531 21.7351 11.9999 21.7351C17.2714 21.7351 21.5642 17.5453 21.73 12.3141L7.94559 20.8532L7.94559 20.8532Z" fill="#232F54"/>
</svg>
