<svg xmlns="http://www.w3.org/2000/svg" viewBox="0 0 150 41.385">
    <defs>
        <style>
            .cls-1{fill:#fff}
        </style>
    </defs>
    <g id="Logo" transform="translate(-63 -27)">
        <path id="XMLID_23_" d="M80.969 32.292v1.077H70.2V15.6h10.692v1.077h-9.384v7.231h7.846v1.077h-7.846v7.462h9.462z" class="cls-1" transform="translate(46.8 23.4)"/>
        <path id="XMLID_21_" d="M100.146 16.677h-6.231v16.769h-1.307V16.677H86.3V15.6h13.846z" class="cls-1" transform="translate(43.085 23.4)"/>
        <path id="XMLID_19_" d="M121.969 15.6v17.846h-1.308v-8.615h-11.153v8.538H108.2V15.6h1.308v8.308h11.154V15.6z" class="cls-1" transform="translate(38.031 23.4)"/>
        <path id="XMLID_17_" d="M142.669 32.292v1.077H132.9V15.6h1.308v16.769h8.462z" class="cls-1" transform="translate(32.331 23.4)"/>
        <path id="XMLID_14_" d="M147.354 28.077v.231a7.982 7.982 0 0 0 .308 2.462 5.491 5.491 0 0 0 .923 1.769 4.017 4.017 0 0 0 1.462 1.077 5.039 5.039 0 0 0 1.923.385 5.114 5.114 0 0 0 1.615-.231 8.952 8.952 0 0 0 1.154-.462 6.765 6.765 0 0 0 .769-.462.7.7 0 0 1 .385-.231c.077 0 .231.077.231.154l.308.385a6.938 6.938 0 0 1-.769.692 4.7 4.7 0 0 1-1.077.538 6.5 6.5 0 0 1-1.308.385 8.476 8.476 0 0 1-1.385.154 5.62 5.62 0 0 1-2.308-.462 6.206 6.206 0 0 1-1.846-1.308 5.008 5.008 0 0 1-1.154-2.077 8.231 8.231 0 0 1-.385-2.846 8.256 8.256 0 0 1 .385-2.462 6.279 6.279 0 0 1 1.077-2 5.058 5.058 0 0 1 1.769-1.308 5.894 5.894 0 0 1 4.385-.077 3.716 3.716 0 0 1 1.538 1.077 6.353 6.353 0 0 1 1.077 1.692 7.251 7.251 0 0 1 .385 2.308.576.576 0 0 1-.077.385.283.283 0 0 1-.231.077h-9.154zm8.385-.769a4.655 4.655 0 0 0-.308-1.846 4.033 4.033 0 0 0-.769-1.385 3.514 3.514 0 0 0-1.231-.846 3.444 3.444 0 0 0-1.538-.308 4.513 4.513 0 0 0-1.769.308 3.839 3.839 0 0 0-1.308.846 4.365 4.365 0 0 0-.923 1.385 6.654 6.654 0 0 0-.462 1.769h8.308z" class="cls-1" transform="translate(29.262 21.923)"/>
        <path id="XMLID_12_" d="M165.431 24.562a8.7 8.7 0 0 1 2-1.769 4.842 4.842 0 0 1 2.538-.692 4.654 4.654 0 0 1 1.846.308 4.022 4.022 0 0 1 1.308.923 4.411 4.411 0 0 1 .769 1.462 7.938 7.938 0 0 1 .231 2v8h-1.231v-7.925a4.382 4.382 0 0 0-.769-2.769 2.935 2.935 0 0 0-2.462-1 4.7 4.7 0 0 0-2.308.615 6.832 6.832 0 0 0-1.923 1.769v9.462h-1.23V22.331h.692c.231 0 .308.077.385.308z" class="cls-1" transform="translate(25.108 21.9)"/>
        <path id="XMLID_9_" d="M191.838 14.877v18.308h-.692c-.231 0-.308-.077-.385-.308l-.154-2a5.941 5.941 0 0 1-1.923 1.769 4.576 4.576 0 0 1-2.462.692 4.362 4.362 0 0 1-3.615-1.615 7.657 7.657 0 0 1-1.308-4.769 8.785 8.785 0 0 1 .385-2.538 6.669 6.669 0 0 1 1.077-2.077 4.219 4.219 0 0 1 1.692-1.385 5.654 5.654 0 0 1 2.308-.538 5.021 5.021 0 0 1 2.231.462 4.58 4.58 0 0 1 1.615 1.385V14.8h1.231zm-1.231 8.462a4.374 4.374 0 0 0-1.615-1.538 4.259 4.259 0 0 0-2-.462 4.75 4.75 0 0 0-1.923.385 3.293 3.293 0 0 0-1.385 1.154 4.216 4.216 0 0 0-.846 1.769 10.4 10.4 0 0 0-.308 2.231 6.5 6.5 0 0 0 1 4.077 3.678 3.678 0 0 0 3 1.308 4.412 4.412 0 0 0 2.231-.615 5.551 5.551 0 0 0 1.769-1.769v-6.541z" class="cls-1" transform="translate(21.162 23.585)"/>
        <path id="XMLID_3_" d="M20.692 0a20.692 20.692 0 1 0 20.693 20.692A20.748 20.748 0 0 0 20.692 0zm-6.615 35.846l-2.538-2.538 6-6-6-5.923 2.538-2.538 8.538 8.538zm9.615-9.615l-8.538-8.538 2.538-2.538 8.538 8.538zm6.154-6.154l-2.538 2.538-8.462-8.538 8.462-8.462 2.538 2.538-6 6z" class="cls-1" transform="translate(63 27)"/>
    </g>
</svg>
