<?xml version="1.0" encoding="UTF-8"?>
<svg width="60px" height="60px" viewBox="0 0 60 60" version="1.1" xmlns="http://www.w3.org/2000/svg" xmlns:xlink="http://www.w3.org/1999/xlink">
    <!-- Generator: Sketch 49.3 (51167) - http://www.bohemiancoding.com/sketch -->
    <title>Coin</title>
    <desc>Created with Sketch.</desc>
    <defs></defs>
    <g id="Symbols" stroke="none" stroke-width="1" fill="none" fill-rule="evenodd">
        <g id="header" transform="translate(-1120.000000, -315.000000)" fill="#FFFFFF">
            <g transform="translate(-325.000000, 0.000000)" id="content">
                <g transform="translate(1105.000000, 315.000000)">
                    <g id="Group" transform="translate(226.000000, 0.000000)">
                        <g id="Icon/Logo/Wordmark">
                            <path d="M144,60 C127.431458,60 114,46.5685425 114,30 C114,13.4314575 127.431458,0 144,0 C160.568542,0 174,13.4314575 174,30 C174,46.5685425 160.568542,60 144,60 Z M141.923671,11.1230716 L139.945284,6.35249949 C132.773045,9.62340254 132.222146,16.849242 131.76352,22.6874375 C131.297075,28.7490346 130.81147,32.5460418 126.723716,34.2011422 L124.715224,35.0128533 L124.693328,40.577257 L141.00681,33.9720949 L140.872702,35.1776595 C140.401564,39.5607319 139.404942,42.6407648 136.033474,44.2656916 L138.002868,49.0349756 C145.304132,45.7989618 145.871843,38.5224775 146.322259,32.6405343 L146.387162,31.7968061 L151.723333,29.6382321 L151.455899,30.9632264 C151.038327,33.0118528 150.86512,35.1560691 150.7185,37.0428006 C150.267303,43.0016422 149.775052,46.849789 145.963334,48.8683421 L147.943676,53.6475005 C154.912603,50.3322652 155.46311,43.1938142 155.905315,37.4240039 C156.373325,31.361228 156.867139,27.5564917 160.944337,25.9092572 L163.284776,24.9610951 L163.306672,19.3974165 L146.852826,26.0615165 L146.990453,24.8477713 C147.458463,20.550797 148.42146,17.5140516 151.635753,15.8718279 L149.648373,11.0927174 C142.539082,14.3729998 141.988966,21.5723302 141.547934,27.3939114 L141.474429,28.2370537 L135.953713,30.4727304 L136.221538,29.1484383 C136.639501,27.12444 136.795114,25.0758657 136.951508,23.0682098 C137.411307,17.0142506 137.921543,13.1048778 141.923671,11.1230716 Z" id="Coin"></path>
                        </g>
                    </g>
                </g>
            </g>
        </g>
    </g>
</svg>