<svg xmlns="http://www.w3.org/2000/svg" viewBox="0 0 165.11 131.93"><defs><style>.cls-1{fill:#1d1d1b;}.cls-2{fill:#be1622;}</style></defs><title>Element 1</title><g id="Ebene_2" data-name="Ebene 2"><g id="Layer_1" data-name="Layer 1"><path class="cls-1" d="M32.11,59.05a50.67,50.67,0,0,0,5.68,16.62h8.74A43.28,43.28,0,0,1,39.85,60Z"/><path class="cls-1" d="M121.14,17.62a51.07,51.07,0,0,0-77.18,0l9.26,1.17a43.61,43.61,0,0,1,58.67,0Z"/><path class="cls-1" d="M125.25,60a43.26,43.26,0,0,1-6.67,15.68h8.74A50.67,50.67,0,0,0,133,59.05Z"/><path class="cls-1" d="M19.07,127.37l-.73,2.23h-.95l2.41-7.1h1.11l2.42,7.1h-1l-.76-2.23Zm2.33-.72-.69-2c-.16-.46-.27-.89-.37-1.3h0c-.11.42-.22.86-.36,1.29l-.7,2.05Z"/><path class="cls-1" d="M28.6,124.5c0,.37,0,.78,0,1.4v3a3,3,0,0,1-.72,2.33,2.75,2.75,0,0,1-1.86.61,3.31,3.31,0,0,1-1.69-.42l.23-.71a2.87,2.87,0,0,0,1.49.4c.95,0,1.65-.49,1.65-1.78v-.56h0a1.85,1.85,0,0,1-1.63.85,2.29,2.29,0,0,1-2.17-2.49,2.45,2.45,0,0,1,2.3-2.7,1.7,1.7,0,0,1,1.59.88h0l0-.77Zm-1,2a1.16,1.16,0,0,0-.06-.42,1.33,1.33,0,0,0-1.29-1c-.89,0-1.52.75-1.52,1.93,0,1,.51,1.83,1.51,1.83a1.35,1.35,0,0,0,1.28-.94,1.74,1.74,0,0,0,.08-.5Z"/><path class="cls-1" d="M34.49,124.5c0,.37,0,.78,0,1.4v3a2.91,2.91,0,0,1-.73,2.33,2.7,2.7,0,0,1-1.85.61,3.34,3.34,0,0,1-1.7-.42l.23-.71a2.91,2.91,0,0,0,1.5.4c1,0,1.64-.49,1.64-1.78v-.56h0a1.82,1.82,0,0,1-1.62.85,2.29,2.29,0,0,1-2.17-2.49,2.45,2.45,0,0,1,2.3-2.7,1.7,1.7,0,0,1,1.59.88h0l0-.77Zm-1,2a1.42,1.42,0,0,0-.05-.42,1.35,1.35,0,0,0-1.3-1c-.88,0-1.51.75-1.51,1.93,0,1,.5,1.83,1.5,1.83a1.37,1.37,0,0,0,1.29-.94,1.73,1.73,0,0,0,.07-.5Z"/><path class="cls-1" d="M35.92,126.09c0-.6,0-1.11,0-1.59h.81l0,1h0a1.54,1.54,0,0,1,1.42-1.11,1.09,1.09,0,0,1,.26,0v.87a1.51,1.51,0,0,0-.32,0,1.31,1.31,0,0,0-1.24,1.19,2.74,2.74,0,0,0,0,.43v2.72h-.92Z"/><path class="cls-1" d="M39.78,127.22A1.63,1.63,0,0,0,41.52,129a3.51,3.51,0,0,0,1.42-.26l.15.66a4.05,4.05,0,0,1-1.69.31,2.37,2.37,0,0,1-2.51-2.56,2.48,2.48,0,0,1,2.39-2.75,2.16,2.16,0,0,1,2.11,2.4,3.55,3.55,0,0,1,0,.43Zm2.71-.66a1.32,1.32,0,0,0-1.28-1.51,1.53,1.53,0,0,0-1.42,1.51Z"/><path class="cls-1" d="M48.93,124.5c0,.37,0,.78,0,1.4v3a3,3,0,0,1-.72,2.33,2.72,2.72,0,0,1-1.85.61,3.32,3.32,0,0,1-1.7-.42l.23-.71a2.88,2.88,0,0,0,1.5.4c.94,0,1.64-.49,1.64-1.78v-.56h0a1.83,1.83,0,0,1-1.62.85,2.28,2.28,0,0,1-2.17-2.49,2.44,2.44,0,0,1,2.29-2.7,1.69,1.69,0,0,1,1.59.88h0l0-.77Zm-1,2a1.42,1.42,0,0,0,0-.42,1.35,1.35,0,0,0-1.3-1c-.88,0-1.52.75-1.52,1.93,0,1,.51,1.83,1.51,1.83a1.37,1.37,0,0,0,1.29-.94,1.73,1.73,0,0,0,.07-.5Z"/><path class="cls-1" d="M53.24,129.6l-.07-.64h0a1.9,1.9,0,0,1-1.56.75A1.45,1.45,0,0,1,50,128.25c0-1.23,1.1-1.9,3.07-1.89v-.11a1.05,1.05,0,0,0-1.16-1.18,2.56,2.56,0,0,0-1.33.38l-.21-.61a3.19,3.19,0,0,1,1.68-.45c1.55,0,1.93,1.06,1.93,2.08v1.91a6.52,6.52,0,0,0,.09,1.22Zm-.13-2.6c-1,0-2.16.16-2.16,1.15a.82.82,0,0,0,.87.88,1.25,1.25,0,0,0,1.23-.85.8.8,0,0,0,.06-.3Z"/><path class="cls-1" d="M56.57,123v1.46H57.9v.71H56.57V128c0,.63.18,1,.7,1a2,2,0,0,0,.53-.07l.05.7a2.43,2.43,0,0,1-.83.12,1.3,1.3,0,0,1-1-.38,1.93,1.93,0,0,1-.35-1.33v-2.78h-.79v-.71h.79v-1.22Z"/><path class="cls-1" d="M59.39,127.22A1.64,1.64,0,0,0,61.14,129a3.46,3.46,0,0,0,1.41-.26l.16.66a4.09,4.09,0,0,1-1.69.31,2.37,2.37,0,0,1-2.51-2.56,2.48,2.48,0,0,1,2.39-2.75,2.16,2.16,0,0,1,2.11,2.4,3.14,3.14,0,0,1,0,.43Zm2.72-.66a1.32,1.32,0,0,0-1.28-1.51,1.54,1.54,0,0,0-1.43,1.51Z"/><path class="cls-1" d="M68.55,122.12v6.16c0,.46,0,1,0,1.32h-.84l0-.89h0a1.87,1.87,0,0,1-1.74,1,2.32,2.32,0,0,1-2.18-2.58,2.44,2.44,0,0,1,2.29-2.74,1.71,1.71,0,0,1,1.54.78h0v-3Zm-.92,4.46a1.67,1.67,0,0,0,0-.39,1.38,1.38,0,0,0-1.34-1.08c-1,0-1.53.85-1.53,2s.51,1.89,1.51,1.89a1.4,1.4,0,0,0,1.36-1.11,1.64,1.64,0,0,0,0-.4Z"/><path class="cls-1" d="M77.32,129.37a4.6,4.6,0,0,1-1.88.33,3.31,3.31,0,0,1-3.5-3.59,3.52,3.52,0,0,1,3.7-3.72,4,4,0,0,1,1.69.31l-.23.75a3.28,3.28,0,0,0-1.43-.29,2.64,2.64,0,0,0-2.77,2.92,2.58,2.58,0,0,0,2.73,2.86,3.67,3.67,0,0,0,1.5-.3Z"/><path class="cls-1" d="M78.4,126.09c0-.6,0-1.11,0-1.59h.81l0,1h0a1.53,1.53,0,0,1,1.41-1.11,1.12,1.12,0,0,1,.27,0v.87a1.51,1.51,0,0,0-.32,0,1.31,1.31,0,0,0-1.24,1.19,2.74,2.74,0,0,0,0,.43v2.72H78.4Z"/><path class="cls-1" d="M82.44,124.5l1.12,3c.12.34.24.74.33,1h0c.09-.31.2-.7.32-1.07l1-3h1l-1.39,3.64a7.82,7.82,0,0,1-1.74,3.19,2.65,2.65,0,0,1-1.14.6l-.23-.78a2.43,2.43,0,0,0,.81-.46,2.77,2.77,0,0,0,.78-1,.67.67,0,0,0,.07-.22.89.89,0,0,0-.06-.24l-1.89-4.7Z"/><path class="cls-1" d="M87.07,126.17c0-.66,0-1.18,0-1.67h.83l0,.88h0a2,2,0,0,1,1.81-1A2.31,2.31,0,0,1,91.89,127c0,1.83-1.12,2.73-2.32,2.73a1.76,1.76,0,0,1-1.56-.8h0v2.77h-.91Zm.91,1.36a2.07,2.07,0,0,0,0,.37A1.41,1.41,0,0,0,89.42,129c1,0,1.54-.8,1.54-2,0-1-.53-1.9-1.51-1.9a1.49,1.49,0,0,0-1.4,1.15,1.27,1.27,0,0,0-.07.38Z"/><path class="cls-1" d="M94.18,123v1.46H95.5v.71H94.18V128c0,.63.17,1,.69,1a2.14,2.14,0,0,0,.54-.07l0,.7a2.36,2.36,0,0,1-.82.12,1.29,1.29,0,0,1-1-.38,1.87,1.87,0,0,1-.36-1.33v-2.78h-.79v-.71h.79v-1.22Z"/><path class="cls-1" d="M101.09,127a2.49,2.49,0,0,1-2.54,2.7,2.42,2.42,0,0,1-2.44-2.62,2.49,2.49,0,0,1,2.53-2.7A2.41,2.41,0,0,1,101.09,127Zm-4,0c0,1.12.64,2,1.55,2s1.54-.83,1.54-2c0-.86-.43-2-1.52-2S97.05,126.09,97.05,127.06Z"/><path class="cls-1" d="M104.53,122.5h.91v6.33h3v.77h-3.94Z"/><path class="cls-1" d="M109.83,127.22a1.63,1.63,0,0,0,1.75,1.77,3.5,3.5,0,0,0,1.41-.26l.16.66a4.15,4.15,0,0,1-1.7.31,2.36,2.36,0,0,1-2.5-2.56,2.47,2.47,0,0,1,2.39-2.75,2.15,2.15,0,0,1,2.1,2.4,3.55,3.55,0,0,1,0,.43Zm2.72-.66a1.32,1.32,0,0,0-1.29-1.51,1.54,1.54,0,0,0-1.42,1.51Z"/><path class="cls-1" d="M114.59,125.88c0-.52,0-1,0-1.38h.82l.06.85h0a1.86,1.86,0,0,1,1.68-1c.71,0,1.8.42,1.8,2.17v3H118v-2.94c0-.82-.3-1.5-1.17-1.5a1.32,1.32,0,0,0-1.25.94,1.46,1.46,0,0,0-.06.44v3.06h-.93Z"/><path class="cls-1" d="M124.84,122.12v6.16c0,.46,0,1,0,1.32h-.83l0-.89h0a1.87,1.87,0,0,1-1.73,1,2.32,2.32,0,0,1-2.18-2.58,2.44,2.44,0,0,1,2.28-2.74,1.71,1.71,0,0,1,1.54.78h0v-3Zm-.93,4.46a1.67,1.67,0,0,0,0-.39,1.37,1.37,0,0,0-1.34-1.08c-1,0-1.52.85-1.52,2s.5,1.89,1.5,1.89a1.4,1.4,0,0,0,1.36-1.11,1.64,1.64,0,0,0,0-.4Z"/><path class="cls-1" d="M127.41,123.07a.58.58,0,0,1-1.15,0,.57.57,0,0,1,.58-.58A.55.55,0,0,1,127.41,123.07Zm-1,6.53v-5.1h.92v5.1Z"/><path class="cls-1" d="M128.84,125.88c0-.52,0-1,0-1.38h.82l0,.85h0a1.89,1.89,0,0,1,1.69-1c.7,0,1.8.42,1.8,2.17v3h-.93v-2.94c0-.82-.3-1.5-1.18-1.5a1.32,1.32,0,0,0-1.24.94,1.46,1.46,0,0,0-.06.44v3.06h-.93Z"/><path class="cls-1" d="M139.07,124.5c0,.37,0,.78,0,1.4v3a3,3,0,0,1-.72,2.33,2.75,2.75,0,0,1-1.86.61,3.31,3.31,0,0,1-1.69-.42l.23-.71a2.87,2.87,0,0,0,1.49.4c1,0,1.65-.49,1.65-1.78v-.56h0a1.85,1.85,0,0,1-1.63.85,2.28,2.28,0,0,1-2.16-2.49,2.44,2.44,0,0,1,2.29-2.7,1.69,1.69,0,0,1,1.59.88h0l0-.77Zm-.95,2a1.16,1.16,0,0,0-.06-.42,1.34,1.34,0,0,0-1.29-1c-.89,0-1.52.75-1.52,1.93,0,1,.51,1.83,1.51,1.83a1.35,1.35,0,0,0,1.28-.94,1.74,1.74,0,0,0,.08-.5Z"/><path class="cls-2" d="M14.4,105q0-11.24,11.1-11.24,10.94,0,10.93,11.24T25.5,116.16Q14.9,116.16,14.4,105Zm11.1,7.62q6.67,0,6.68-7.71T25.5,97.3q-6.85,0-6.85,7.59T25.5,112.6Z"/><path class="cls-2" d="M39.91,116V99.77h3.17l.51,2.38a7.26,7.26,0,0,1,5.32-2.38q5.78,0,5.77,6V116h-4.1V105.77a2.37,2.37,0,0,0-2.68-2.69A6.05,6.05,0,0,0,44,104.67V116Z"/><path class="cls-2" d="M65.39,99.77q7.39,0,7.39,7.55a15.07,15.07,0,0,1-.13,2H61.87c0,2.28,1.68,3.43,5,3.43a26.44,26.44,0,0,0,4.92-.47v3.25a25.26,25.26,0,0,1-5.23.46q-8.83,0-8.83-8.3Q57.77,99.76,65.39,99.77Zm-3.52,6.71H68.8v-.12q0-3.37-3.41-3.37C63.23,103,62.05,104.15,61.87,106.48Z"/><path class="cls-2" d="M80.35,93.89v18.56h8.78V116H76.25V93.89Z"/><path class="cls-2" d="M99.46,99.77q7.38,0,7.39,7.55a15.09,15.09,0,0,1-.14,2H95.93c0,2.28,1.68,3.43,5,3.43a26.44,26.44,0,0,0,4.92-.47v3.25a25.19,25.19,0,0,1-5.23.46q-8.82,0-8.83-8.3Q91.83,99.76,99.46,99.77Zm-3.53,6.71h6.93v-.12c0-2.25-1.14-3.37-3.4-3.37S96.12,104.15,95.93,106.48Z"/><path class="cls-2" d="M109.93,116V99.77h3.16l.52,2.38a7.22,7.22,0,0,1,5.31-2.38q5.77,0,5.77,6V116h-4.1V105.77a2.37,2.37,0,0,0-2.67-2.69,6.06,6.06,0,0,0-3.9,1.59V116Z"/><path class="cls-2" d="M142.94,115a28.71,28.71,0,0,1-7.28,1q-7.87,0-7.87-8.44,0-7.78,7.7-7.79a8.19,8.19,0,0,1,3.35.77V93.89h4.1Zm-4.1-11a5.64,5.64,0,0,0-3.18-.84q-3.82,0-3.82,4.28c0,3.4,1.32,5.09,4,5.09a10,10,0,0,0,3-.45Z"/><path class="cls-2" d="M154.71,26.79l10.4-12.69-59.74,7.56a30.12,30.12,0,0,1-1,40.51l2,8.1,5.8,3.27a36.94,36.94,0,0,0,7.52-20.48l1.12,5.43,14.38-1.73,5.4-9.86-20.9,2.24a36.69,36.69,0,0,0-1.92-10L121,45.66l25.3-3.18,6.35-11.1-36.23,4.51a37.19,37.19,0,0,0-5.89-9.2l5.87,5.19Z"/><path class="cls-2" d="M45.47,53.06A36.94,36.94,0,0,0,53,73.54l5.8-3.27,2-8.1a30.11,30.11,0,0,1-1-40.51L0,14.1,10.4,26.79l38.27,5.09,5.87-5.19a37.19,37.19,0,0,0-5.89,9.2L12.42,31.38l6.35,11.1,25.29,3.18,3.32-6.56a37.06,37.06,0,0,0-1.92,10L24.57,46.9,30,56.76l14.38,1.73Z"/><polygon class="cls-2" points="64.06 38.67 74.72 46.29 67.16 46.29 64.06 38.67"/><polygon class="cls-2" points="101.05 38.67 90.38 46.29 97.94 46.29 101.05 38.67"/><polygon class="cls-1" points="96.86 47.44 86.33 47.44 98.35 38.8 94.57 27.73 89.84 29.76 96.86 21.11 93.35 7.62 87.95 17.61 91.6 19.77 82.55 18.68 73.51 19.77 77.15 17.61 71.75 7.62 68.24 21.11 75.26 29.76 70.54 27.73 66.76 38.8 78.77 47.44 68.24 47.44 71.62 61.08 74.52 55.95 70.27 71.34 76.17 84.75 81.07 86.19 77.15 80.79 82.55 84.16 87.95 80.79 84.04 86.19 88.93 84.75 94.84 71.34 90.59 55.95 93.49 61.08 96.86 47.44"/><polygon class="cls-1" points="48.22 83.62 74.32 83.62 67.57 72.15 69.73 62.29 65.95 49.33 60.55 71.61 53.33 75.67 53.09 75.81 48.22 83.62"/><polygon class="cls-1" points="116.89 83.62 112.02 75.81 104.56 71.61 99.16 49.33 95.38 62.29 97.54 72.15 90.79 83.62 116.89 83.62"/></g></g></svg>