<svg xmlns="http://www.w3.org/2000/svg" viewBox="0 0 165.11 86.19"><defs><style>.cls-1{fill:#d8d8d8;}.cls-2{fill:#be1622;}</style></defs><title>Element 3</title><g id="Ebene_2" data-name="Ebene 2"><g id="Layer_1" data-name="Layer 1"><path class="cls-1" d="M32.11,59.05a50.67,50.67,0,0,0,5.68,16.62h8.74A43.28,43.28,0,0,1,39.85,60Z"/><path class="cls-1" d="M121.14,17.62a51.07,51.07,0,0,0-77.18,0l9.26,1.17a43.61,43.61,0,0,1,58.67,0Z"/><path class="cls-1" d="M125.25,60a43.26,43.26,0,0,1-6.67,15.68h8.74A50.67,50.67,0,0,0,133,59.05Z"/><path class="cls-2" d="M154.71,26.79l10.4-12.69-59.74,7.56a30.12,30.12,0,0,1-1,40.51l2,8.1,5.8,3.27a36.94,36.94,0,0,0,7.52-20.48l1.12,5.43,14.38-1.73,5.4-9.86-20.9,2.24a36.69,36.69,0,0,0-1.92-10L121,45.66l25.3-3.18,6.35-11.1-36.23,4.51a37.19,37.19,0,0,0-5.89-9.2l5.87,5.19Z"/><path class="cls-2" d="M45.47,53.06A36.94,36.94,0,0,0,53,73.54l5.8-3.27,2-8.1a30.11,30.11,0,0,1-1-40.51L0,14.1,10.4,26.79l38.27,5.09,5.87-5.19a37.19,37.19,0,0,0-5.89,9.2L12.42,31.38l6.35,11.1,25.29,3.18,3.32-6.56a37.06,37.06,0,0,0-1.92,10L24.57,46.9,30,56.76l14.38,1.73Z"/><polygon class="cls-2" points="64.06 38.67 74.72 46.29 67.16 46.29 64.06 38.67"/><polygon class="cls-2" points="101.05 38.67 90.38 46.29 97.94 46.29 101.05 38.67"/><polygon class="cls-1" points="96.86 47.44 86.33 47.44 98.35 38.8 94.57 27.73 89.84 29.76 96.86 21.11 93.35 7.62 87.95 17.61 91.6 19.77 82.55 18.68 73.51 19.77 77.15 17.61 71.75 7.62 68.24 21.11 75.26 29.76 70.54 27.73 66.76 38.8 78.77 47.44 68.24 47.44 71.62 61.08 74.52 55.95 70.27 71.34 76.17 84.75 81.07 86.19 77.15 80.79 82.55 84.16 87.95 80.79 84.04 86.19 88.93 84.75 94.84 71.34 90.59 55.95 93.49 61.08 96.86 47.44"/><polygon class="cls-1" points="48.22 83.62 74.32 83.62 67.57 72.15 69.73 62.29 65.95 49.33 60.55 71.61 53.33 75.67 53.09 75.81 48.22 83.62"/><polygon class="cls-1" points="116.89 83.62 112.02 75.81 104.56 71.61 99.16 49.33 95.38 62.29 97.54 72.15 90.79 83.62 116.89 83.62"/></g></g></svg>