<svg xmlns="http://www.w3.org/2000/svg" viewBox="0 0 180.14 42.36"><defs><style>.cls-1{fill:#be1622;}.cls-2{fill:#1d1d1b;}</style></defs><title>Element 2</title><g id="Ebene_2" data-name="Ebene 2"><g id="Layer_1" data-name="Layer 1"><path class="cls-1" d="M84.15,18q0-8.38,8.29-8.39T100.6,18q0,8.36-8.16,8.35Q84.52,26.33,84.15,18Zm8.29,5.7c3.32,0,5-1.92,5-5.77s-1.67-5.67-5-5.67-5.12,1.89-5.12,5.67S89,23.68,92.44,23.68Z"/><path class="cls-1" d="M103.2,26.22V14.09h2.37l.38,1.78a5.39,5.39,0,0,1,4-1.78q4.31,0,4.31,4.48v7.65h-3.06V18.57a1.77,1.77,0,0,0-2-2,4.54,4.54,0,0,0-2.91,1.19v8.47Z"/><path class="cls-1" d="M122.23,14.09q5.52,0,5.52,5.64a12.59,12.59,0,0,1-.1,1.5H119.6q0,2.57,3.76,2.56a19,19,0,0,0,3.67-.35v2.43a18.83,18.83,0,0,1-3.9.35q-6.6,0-6.59-6.2C116.54,16.07,118.43,14.09,122.23,14.09Zm-2.63,5h5.17V19a2.24,2.24,0,0,0-2.54-2.52C120.61,16.49,119.74,17.36,119.6,19.1Z"/><path class="cls-1" d="M133.4,9.7V23.56H140v2.66h-9.61V9.7Z"/><path class="cls-1" d="M147.67,14.09q5.52,0,5.52,5.64a10.81,10.81,0,0,1-.11,1.5H145q0,2.57,3.77,2.56a19,19,0,0,0,3.67-.35v2.43a18.83,18.83,0,0,1-3.9.35q-6.6,0-6.6-6.2Q142,14.1,147.67,14.09Zm-2.64,5h5.18V19a2.24,2.24,0,0,0-2.54-2.52Q145.24,16.49,145,19.1Z"/><path class="cls-1" d="M155.48,26.22V14.09h2.37l.38,1.78a5.41,5.41,0,0,1,4-1.78c2.88,0,4.31,1.49,4.31,4.48v7.65h-3.06V18.57a1.77,1.77,0,0,0-2-2,4.54,4.54,0,0,0-2.91,1.19v8.47Z"/><path class="cls-1" d="M180.14,25.49a21.73,21.73,0,0,1-5.44.73q-5.88,0-5.88-6.31,0-5.82,5.75-5.82a6,6,0,0,1,2.51.58v-5h3.06Zm-3.06-8.23a4.22,4.22,0,0,0-2.38-.63q-2.85,0-2.85,3.2c0,2.53,1,3.8,3,3.8a7.64,7.64,0,0,0,2.27-.33Z"/><path class="cls-2" d="M15.78,29a24.89,24.89,0,0,0,2.8,8.17h4.29a21.2,21.2,0,0,1-3.28-7.71Z"/><path class="cls-2" d="M59.55,8.66a25.11,25.11,0,0,0-37.94,0l4.55.58A21.42,21.42,0,0,1,55,9.24Z"/><path class="cls-2" d="M61.57,29.49a21.39,21.39,0,0,1-3.29,7.71h4.3A25.11,25.11,0,0,0,65.37,29Z"/><path class="cls-1" d="M76.05,13.17l5.11-6.24L51.79,10.64a14.8,14.8,0,0,1-.5,19.92l1,4,2.85,1.61a18.18,18.18,0,0,0,3.7-10.07l.55,2.67,7.06-.85,2.66-4.85-10.27,1.1a18,18,0,0,0-1-4.93l1.64,3.22,12.43-1.56,3.12-5.46L57.24,17.64a18.41,18.41,0,0,0-2.89-4.52l2.88,2.55Z"/><path class="cls-1" d="M22.35,26.08a18.18,18.18,0,0,0,3.7,10.07l2.85-1.61,1-4a14.83,14.83,0,0,1-.5-19.92L0,6.93l5.11,6.24,18.81,2.5,2.89-2.55a18.16,18.16,0,0,0-2.9,4.52L6.1,15.42l3.12,5.46,12.44,1.56,1.63-3.22a18,18,0,0,0-.94,4.93l-10.27-1.1,2.65,4.85,7.07.85Z"/><polygon class="cls-1" points="31.49 19 36.73 22.75 33.01 22.75 31.49 19"/><polygon class="cls-1" points="49.67 19 44.43 22.75 48.14 22.75 49.67 19"/><polygon class="cls-2" points="47.61 23.32 42.44 23.32 48.34 19.07 46.48 13.63 44.16 14.63 47.61 10.38 45.89 3.74 43.23 8.65 45.02 9.71 40.58 9.18 36.13 9.71 37.92 8.65 35.27 3.74 33.54 10.38 36.99 14.63 34.67 13.63 32.81 19.07 38.72 23.32 33.54 23.32 35.2 30.02 36.63 27.5 34.54 35.06 37.44 41.66 39.85 42.36 37.92 39.71 40.58 41.37 43.23 39.71 41.31 42.36 43.71 41.66 46.62 35.06 44.53 27.5 45.95 30.02 47.61 23.32"/><polygon class="cls-2" points="23.7 41.1 36.53 41.1 33.21 35.46 34.27 30.62 32.42 24.25 29.76 35.2 26.21 37.2 26.09 37.26 23.7 41.1"/><polygon class="cls-2" points="57.45 41.1 55.06 37.26 51.39 35.2 48.74 24.25 46.88 30.62 47.94 35.46 44.63 41.1 57.45 41.1"/><path class="cls-2" d="M86.33,35.33,85.76,37H85l1.85-5.45h.85L89.6,37h-.76l-.58-1.71Zm1.79-.55-.54-1.57c-.12-.36-.2-.68-.28-1h0c-.08.32-.17.65-.27,1l-.53,1.58Z"/><path class="cls-2" d="M93.65,33.13c0,.28,0,.6,0,1.08v2.27a2.26,2.26,0,0,1-.56,1.79,2.09,2.09,0,0,1-1.42.46,2.5,2.5,0,0,1-1.3-.32l.17-.54a2.25,2.25,0,0,0,1.15.31c.73,0,1.26-.38,1.26-1.37v-.44h0a1.39,1.39,0,0,1-1.25.66A1.75,1.75,0,0,1,90,35.12,1.87,1.87,0,0,1,91.76,33a1.31,1.31,0,0,1,1.22.68h0l0-.59Zm-.74,1.55a.86.86,0,0,0,0-.33,1,1,0,0,0-1-.75c-.68,0-1.17.57-1.17,1.48s.39,1.41,1.16,1.41a1.05,1.05,0,0,0,1-.73,1.24,1.24,0,0,0,0-.38Z"/><path class="cls-2" d="M98.17,33.13c0,.28,0,.6,0,1.08v2.27a2.26,2.26,0,0,1-.56,1.79,2.09,2.09,0,0,1-1.42.46,2.5,2.5,0,0,1-1.3-.32l.18-.54a2.18,2.18,0,0,0,1.14.31c.73,0,1.27-.38,1.27-1.37v-.44h0a1.39,1.39,0,0,1-1.25.66,1.75,1.75,0,0,1-1.66-1.91A1.87,1.87,0,0,1,96.28,33a1.31,1.31,0,0,1,1.22.68h0l0-.59Zm-.73,1.55a1.11,1.11,0,0,0,0-.33,1,1,0,0,0-1-.75c-.68,0-1.16.57-1.16,1.48s.39,1.41,1.15,1.41a1,1,0,0,0,1-.73,1.26,1.26,0,0,0,.06-.38Z"/><path class="cls-2" d="M99.28,34.35c0-.46,0-.86,0-1.22h.63l0,.77h0A1.18,1.18,0,0,1,101,33a.64.64,0,0,1,.2,0v.67a.88.88,0,0,0-.24,0,1,1,0,0,0-1,.92,2.88,2.88,0,0,0,0,.33V37h-.7Z"/><path class="cls-2" d="M102.24,35.22a1.25,1.25,0,0,0,1.34,1.36,2.41,2.41,0,0,0,1.08-.21l.12.51a3,3,0,0,1-1.3.25,1.82,1.82,0,0,1-1.92-2A1.9,1.9,0,0,1,103.39,33,1.66,1.66,0,0,1,105,34.89c0,.14,0,.25,0,.33Zm2.08-.51a1,1,0,0,0-1-1.16,1.19,1.19,0,0,0-1.1,1.16Z"/><path class="cls-2" d="M109.27,33.13c0,.28,0,.6,0,1.08v2.27a2.26,2.26,0,0,1-.55,1.79,2.1,2.1,0,0,1-1.43.46,2.53,2.53,0,0,1-1.3-.32l.18-.54a2.22,2.22,0,0,0,1.15.31c.72,0,1.26-.38,1.26-1.37v-.44h0a1.39,1.39,0,0,1-1.24.66,1.76,1.76,0,0,1-1.67-1.91A1.88,1.88,0,0,1,107.37,33a1.29,1.29,0,0,1,1.22.68h0l0-.59Zm-.74,1.55a1.11,1.11,0,0,0,0-.33,1,1,0,0,0-1-.75c-.67,0-1.16.57-1.16,1.48s.39,1.41,1.16,1.41a1,1,0,0,0,1-.73,1.26,1.26,0,0,0,.06-.38Z"/><path class="cls-2" d="M112.58,37l0-.49h0a1.45,1.45,0,0,1-1.19.58,1.11,1.11,0,0,1-1.2-1.12c0-.95.84-1.46,2.35-1.46v-.08a.8.8,0,0,0-.89-.9,2,2,0,0,0-1,.29l-.16-.47a2.45,2.45,0,0,1,1.29-.35c1.19,0,1.49.82,1.49,1.6v1.47a5.25,5.25,0,0,0,.06.93Zm-.1-2c-.78,0-1.66.12-1.66.88a.63.63,0,0,0,.67.68,1,1,0,0,0,1-.66.85.85,0,0,0,0-.22Z"/><path class="cls-2" d="M115.14,32v1.12h1v.54h-1v2.11c0,.49.14.76.53.76a1.4,1.4,0,0,0,.42,0l0,.54a1.92,1.92,0,0,1-.63.1,1,1,0,0,1-.77-.3,1.46,1.46,0,0,1-.28-1V33.67h-.6v-.54h.6v-.94Z"/><path class="cls-2" d="M117.31,35.22a1.25,1.25,0,0,0,1.34,1.36,2.5,2.5,0,0,0,1.09-.21l.12.51a3.05,3.05,0,0,1-1.31.25,1.82,1.82,0,0,1-1.92-2A1.9,1.9,0,0,1,118.47,33a1.66,1.66,0,0,1,1.61,1.85,2.63,2.63,0,0,1,0,.33Zm2.09-.51a1,1,0,0,0-1-1.16,1.17,1.17,0,0,0-1.09,1.16Z"/><path class="cls-2" d="M124.35,31.3V36c0,.35,0,.75,0,1h-.64l0-.68h0a1.44,1.44,0,0,1-1.33.77,1.79,1.79,0,0,1-1.68-2,1.87,1.87,0,0,1,1.76-2.1,1.3,1.3,0,0,1,1.18.6h0V31.3Zm-.72,3.42a1,1,0,0,0,0-.3,1,1,0,0,0-1-.82c-.73,0-1.17.65-1.17,1.51s.39,1.45,1.16,1.45a1.07,1.07,0,0,0,1-.85,1,1,0,0,0,0-.31Z"/><path class="cls-2" d="M131.08,36.87a3.5,3.5,0,0,1-1.44.26,2.56,2.56,0,0,1-2.7-2.76,2.72,2.72,0,0,1,2.85-2.87,2.89,2.89,0,0,1,1.3.25l-.17.57a2.58,2.58,0,0,0-1.1-.22,2,2,0,0,0-2.13,2.24,2,2,0,0,0,2.09,2.19,2.77,2.77,0,0,0,1.15-.22Z"/><path class="cls-2" d="M131.91,34.35c0-.46,0-.86,0-1.22h.62l0,.77h0a1.18,1.18,0,0,1,1.08-.86.71.71,0,0,1,.21,0v.67a1,1,0,0,0-.25,0,1,1,0,0,0-.95.92,1.61,1.61,0,0,0,0,.33V37h-.71Z"/><path class="cls-2" d="M135,33.13l.86,2.31c.09.26.18.57.25.8h0c.08-.23.16-.53.25-.81l.78-2.3h.75l-1.06,2.79a5.91,5.91,0,0,1-1.35,2.45,1.82,1.82,0,0,1-.87.46l-.18-.6a1.84,1.84,0,0,0,.62-.34,2.12,2.12,0,0,0,.6-.8.38.38,0,0,0,.06-.17.71.71,0,0,0-.05-.18l-1.45-3.61Z"/><path class="cls-2" d="M138.57,34.41c0-.5,0-.91,0-1.28h.64l0,.67h0a1.53,1.53,0,0,1,1.39-.76,1.78,1.78,0,0,1,1.66,2,1.85,1.85,0,0,1-1.78,2.1,1.38,1.38,0,0,1-1.21-.61h0v2.13h-.71Zm.71,1a1.29,1.29,0,0,0,0,.29,1.1,1.1,0,0,0,1.06.84c.76,0,1.19-.62,1.19-1.52s-.41-1.45-1.16-1.45a1.14,1.14,0,0,0-1.08.88,1.35,1.35,0,0,0,0,.29Z"/><path class="cls-2" d="M144,32v1.12h1v.54h-1v2.11c0,.49.14.76.54.76a1.37,1.37,0,0,0,.41,0l0,.54a1.92,1.92,0,0,1-.63.1,1,1,0,0,1-.77-.3,1.47,1.47,0,0,1-.27-1V33.67h-.61v-.54h.61v-.94Z"/><path class="cls-2" d="M149.35,35.06a1.91,1.91,0,0,1-1.95,2.07,1.86,1.86,0,0,1-1.88-2A1.91,1.91,0,0,1,147.46,33,1.86,1.86,0,0,1,149.35,35.06Zm-3.11,0c0,.85.49,1.5,1.19,1.5s1.19-.64,1.19-1.52c0-.66-.33-1.51-1.17-1.51S146.24,34.35,146.24,35.1Z"/><path class="cls-2" d="M152,31.59h.7v4.86H155V37h-3Z"/><path class="cls-2" d="M156.06,35.22a1.26,1.26,0,0,0,1.34,1.36,2.5,2.5,0,0,0,1.09-.21l.12.51a3,3,0,0,1-1.3.25,1.82,1.82,0,0,1-1.93-2A1.9,1.9,0,0,1,157.22,33a1.66,1.66,0,0,1,1.62,1.85,2.34,2.34,0,0,1,0,.33Zm2.09-.51a1,1,0,0,0-1-1.16,1.18,1.18,0,0,0-1.09,1.16Z"/><path class="cls-2" d="M159.72,34.19c0-.4,0-.74,0-1.06h.63l0,.65h0a1.44,1.44,0,0,1,1.3-.74c.54,0,1.38.32,1.38,1.67V37h-.71V34.79c0-.63-.23-1.16-.91-1.16a1,1,0,0,0-1,.73,1.09,1.09,0,0,0,0,.33V37h-.71Z"/><path class="cls-2" d="M167.59,31.3V36c0,.35,0,.75,0,1H167l0-.68h0a1.45,1.45,0,0,1-1.34.77,1.78,1.78,0,0,1-1.67-2,1.87,1.87,0,0,1,1.75-2.1,1.29,1.29,0,0,1,1.18.6h0V31.3Zm-.71,3.42a1.53,1.53,0,0,0,0-.3,1.06,1.06,0,0,0-1-.82c-.74,0-1.17.65-1.17,1.51s.38,1.45,1.15,1.45a1.08,1.08,0,0,0,1-.85,1.48,1.48,0,0,0,0-.31Z"/><path class="cls-2" d="M169.57,32a.45.45,0,1,1-.44-.44A.42.42,0,0,1,169.57,32Zm-.8,5V33.13h.72V37Z"/><path class="cls-2" d="M170.67,34.19c0-.4,0-.74,0-1.06h.63l.05.65h0a1.44,1.44,0,0,1,1.29-.74c.55,0,1.39.32,1.39,1.67V37h-.71V34.79c0-.63-.24-1.16-.91-1.16a1,1,0,0,0-.95.73.85.85,0,0,0-.05.33V37h-.71Z"/><path class="cls-2" d="M178.53,33.13c0,.28,0,.6,0,1.08v2.27a2.26,2.26,0,0,1-.56,1.79,2.09,2.09,0,0,1-1.42.46,2.57,2.57,0,0,1-1.31-.32l.18-.54a2.22,2.22,0,0,0,1.15.31c.73,0,1.26-.38,1.26-1.37v-.44h0a1.36,1.36,0,0,1-1.24.66,1.76,1.76,0,0,1-1.67-1.91A1.88,1.88,0,0,1,176.64,33a1.31,1.31,0,0,1,1.22.68h0l0-.59Zm-.74,1.55a1.11,1.11,0,0,0,0-.33,1,1,0,0,0-1-.75c-.68,0-1.17.57-1.17,1.48s.39,1.41,1.16,1.41a1.05,1.05,0,0,0,1-.73,1.24,1.24,0,0,0,0-.38Z"/></g></g></svg>