<svg width="96" height="96" viewBox="0 0 96 96" fill="none" xmlns="http://www.w3.org/2000/svg">
<path d="M48 95C73.9574 95 95 73.9574 95 48C95 22.0426 73.9574 1 48 1C22.0426 1 1 22.0426 1 48C1 73.9574 22.0426 95 48 95Z" fill="#627EEA"/>
<path d="M49.2324 18.3152V40.2568L67.7776 48.5436L49.2324 18.3152Z" fill="white" fill-opacity="0.602"/>
<path d="M49.2325 18.3152L30.6848 48.5436L49.2325 40.2568V18.3152Z" fill="white"/>
<path d="M49.2324 62.7632V77.6721L67.7899 51.9977L49.2324 62.7632Z" fill="white" fill-opacity="0.602"/>
<path d="M49.2325 77.6721V62.7607L30.6848 51.9977L49.2325 77.6721Z" fill="white"/>
<path d="M49.2324 59.3114L67.7776 48.5434L49.2324 40.2615V59.3114Z" fill="white" fill-opacity="0.2"/>
<path d="M30.6848 48.5434L49.2325 59.3114V40.2615L30.6848 48.5434Z" fill="white" fill-opacity="0.602"/>
</svg>
